<?xml version="1.0" encoding="utf-8"?>
<svg height="836" width="836" viewBox="0 0 500 500" xmlns="http://www.w3.org/2000/svg">
  <defs>
    <clipPath id="clip-0">
      <path style="stroke-width: 3px; fill: rgb(255, 255, 0); stroke: rgb(0, 0, 0); stroke-opacity: 0; stroke-linejoin: round; stroke-linecap: round; pointer-events: none;" d="M 214.768 243.253 C 208.387 229.371 147.803 219.913 146.804 222.787 C 122.672 284.86 217.521 299.741 214.768 243.253 Z"/>
    </clipPath>
    <clipPath id="clip-1">
      <path style="stroke-width: 3px; fill: rgb(255, 255, 0); stroke: rgb(0, 0, 0); stroke-opacity: 0; stroke-linejoin: round; stroke-linecap: round; pointer-events: none;" d="M 285.049 237.847 L 333.339 211.346 C 388.849 258.474 281.291 323.727 285.049 237.847 Z"/>
    </clipPath>
  </defs>
  <circle style="fill: rgb(216, 216, 216); stroke-linejoin: round; stroke-linecap: round; pointer-events: none;" cx="250" cy="250" r="250"/>
  <path style="stroke-width: 3px; stroke: rgb(0, 0, 0); stroke-opacity: 0; fill: rgb(51, 51, 51); stroke-linejoin: round; stroke-linecap: round; pointer-events: none;" d="M 155.839 404.452 C 74.076 402.246 -9.163 305.554 85.521 199.184 C 88.642 190.702 89.567 95.184 91.313 95.184 C 93.447 77.745 150.151 159.369 158.89 172.258 C 218.415 131.708 315.724 145.224 341.157 174.578 C 345.771 169.239 380.902 118.582 391.357 110.043 C 407.86 108.218 401.213 210.267 402.943 208.47 C 482.816 248.759 477.595 387.802 359.651 404.452"/>
  <g style="pointer-events: none; clip-path: url(#clip-0);">
    <path style="stroke-width: 3px; fill: rgb(255, 255, 0); stroke: rgb(0, 0, 0); stroke-opacity: 0; stroke-linejoin: round; stroke-linecap: round;" d="M 214.768 243.253 C 208.387 229.371 147.803 219.913 146.804 222.787 C 122.672 284.86 217.521 299.741 214.768 243.253 Z"/>
    <path style="fill: black; stroke-width: 3px; stroke: black; stroke-linejoin: round; stroke-linecap: round;" d="M 169.232 226.541 C 164.496 228.806 158.937 256.553 168.383 262.458 C 181.214 267.697 208.634 240.081 198.524 233.975 C 194.377 231.919 170.2 225.767 169.232 226.541 Z"/>
  </g>
  <g style="pointer-events: none; clip-path: url(#clip-1);">
    <path style="stroke-width: 3px; fill: rgb(255, 255, 0); stroke: rgb(0, 0, 0); stroke-opacity: 0; stroke-linejoin: round; stroke-linecap: round;" d="M 285.049 237.847 L 333.339 211.346 C 388.849 258.474 281.291 323.727 285.049 237.847 Z"/>
    <path style="fill: black; stroke-width: 3px; stroke: black; stroke-linejoin: round; stroke-linecap: round;" d="M 296.094 233.378 L 314.081 223.588 C 321.11 225.808 327.078 259.989 309.864 264.822 C 292.65 269.657 295.966 235.777 296.094 233.378 Z"/>
  </g>
  <path style="stroke-width: 3px; stroke: rgb(128, 128, 128); fill: rgb(128, 128, 128); stroke-linejoin: round; stroke-linecap: round; pointer-events: none;" d="M 233.32 291.41 C 233.32 290.919 267.736 288.274 267.736 289.963 C 270.98 289.963 267.194 320.711 265.99 320.711 C 262.439 326.218 230.936 295.108 233.32 291.41 Z" transform="matrix(-0.679305, 0.733856, -0.733856, -0.679305, 645.790459, 328.558193)"/>
  <path style="fill: none; stroke: rgb(128, 128, 128); stroke-width: 6px; stroke-linejoin: round; stroke-linecap: round; pointer-events: none;" d="M 250.589 324.034 L 252.443 349.372 C 230.077 397.832 166.815 365.88 183.845 328.978"/>
  <path style="fill: none; stroke: rgb(128, 128, 128); stroke-width: 6px; stroke-linejoin: round; stroke-linecap: round; pointer-events: none;" d="M 252.443 347.518 C 278.217 383.377 308.936 356.31 298.175 341.337"/>
  <path d="M 143.46234941558293 122.96453145512992 Q 139.55345897209483 124.53881589601322 135.53495177981665 123.65400351725224 Q 131.5164445875385 122.76919113849125 128.02705420170753 119.39981734870918 Q 124.53766381587657 116.03044355892709 122.32081429708171 110.52608762830097 Q 118.20839779844775 100.31510851061773 120.44224015630947 92.74012228487297 Q 122.67608251417118 85.16513605912822 130.6534099498612 81.95231066957044 Q 135.99821933177356 79.79971765856672 142.3877443256742 80.4713175039501 L 136.39308817223872 64.43579463744905 Q 135.9754208715962 63.39874207080935 136.46793520315723 62.319613425463004 Q 136.96044953471824 61.240484780116674 137.99750210135792 60.82281747947417 Q 138.95478139364073 60.43727843272724 140.03391003898707 60.92979276428825 Q 141.1130386843334 61.42230709584926 141.5307059849759 62.459359662488964 L 160.60703507773198 113.27821959012675 Q 161.0247023783745 114.31527215676645 160.53994643009636 115.29856340080809 Q 160.05519048181822 116.28185464484973 159.0181379151785 116.69952194549225 Q 157.9013120741819 117.14931750003034 156.84600593906623 116.60085240434307 Q 155.79069980395056 116.05238730865582 155.42067752376937 114.90343321376365 L 154.18319238840758 111.60060071123516 Q 150.40262428463328 120.16937336621464 143.46234941558293 122.96453145512992 Z M 141.64655571010076 118.22578001417722 Q 145.31612633051816 116.74788033498064 147.7370739320644 114.01131447416758 Q 150.15802153361065 111.27474861335452 151.0217482040512 108.46999938414173 Q 151.88547487449173 105.66525015492896 151.32268307093707 104.03765641389536 L 144.29992279284312 85.4493887679735 Q 142.1272434563488 85.1191577870365 138.9097531699319 85.30243150804671 Q 135.692262883515 85.48570522905692 132.8204250066666 86.64232236929772 Q 126.67788288118527 89.11619791925722 125.33377914552293 94.75672991081427 Q 123.9896754098606 100.39726190237133 127.1703725455228 108.29481606370445 Q 129.74063285716903 114.67667801225647 133.6194891503555 117.28656361450187 Q 137.49834544354195 119.89644921674726 141.64655571010076 118.22578001417722 Z M 187.5439306521172 108.9327558017615 Q 186.42605976601294 108.91576515726288 185.6209168723589 108.12943830359556 Q 184.8157739787048 107.34311144992823 184.83145765054968 106.31123063198584 L 185.4039116728878 68.64758077708849 Q 185.41959534473267 67.6156999591461 186.24891723248095 66.8112105518189 Q 187.0782391202292 66.0067211444917 188.19611000633347 66.02371178899031 Q 189.3139808924377 66.04070243348895 190.075475265684 66.86937083491033 Q 190.83696963893024 67.69803923633171 190.82128596708537 68.72992005427412 L 190.67098411190526 78.61877789288872 Q 193.59360958373995 73.07255355994084 198.16102055471438 69.65857186370661 Q 202.72843152568882 66.24459016747238 207.113925001944 66.31124577281312 Q 210.81149793290425 66.36744559692394 213.74482748181825 68.60528289160555 Q 216.67815703073228 70.84312018628717 217.71499561230465 76.19149505682148 Q 220.88644248004874 71.25112211896788 224.79193729531056 68.94520901393487 Q 228.69743211057238 66.63929590890186 232.4809951096945 66.69680270566641 Q 237.72638926756832 66.77652803754455 240.80621298605814 70.69378560669003 Q 243.88603670454796 74.61104317583552 243.76187430244266 82.7800996512128 L 243.3906940687805 107.20127900918277 Q 243.37501039693564 108.23315982712516 242.54634199551424 108.99465420037143 Q 241.71767359409284 109.7561485736177 240.59980270798857 109.73915792911907 Q 239.48193182188433 109.72216728462045 238.7197839623112 108.93649391728 Q 237.95763610273806 108.15082054993954 237.97331977458293 107.11893973199714 L 238.35364881682128 82.09582989689412 Q 238.43468112135315 76.76444567085842 236.7521284787474 74.28758927517043 Q 235.0695758361417 71.81073287948246 231.7159631778289 71.75976094598659 Q 229.13626113297292 71.7205517663744 225.9675632740288 73.6506188322358 Q 222.79886541508466 75.58068589809722 220.50823079141907 79.15828747189835 Q 218.21759616775347 82.73588904569948 218.14701964445152 87.37935272644026 L 217.85164382470626 106.81310813102199 Q 217.8359601528614 107.84498894896439 217.05028678552094 108.60713680853752 Q 216.2646134181805 109.36928466811065 215.14674253207622 109.35229402361203 Q 214.02887164597195 109.33530337911341 213.2237287523179 108.5489765254461 Q 212.41858585866385 107.76264967177876 212.43426953050871 106.73076885383638 L 212.81459857274706 81.70765901873334 Q 212.89693784993267 76.29028472453578 211.3857118573238 73.8590373082362 Q 209.87448586471493 71.42778989193664 206.34889307007842 71.3742040131333 Q 203.42523075257498 71.32976694290613 200.29233957811618 73.73343286998468 Q 197.15944840365742 76.13709879706323 194.5261604799981 79.62348241208754 Q 192.1547636787856 82.85581674058747 191.33772296775538 85.68172623604539 Q 190.52068225672517 88.50763573150331 190.4435708701545 93.5810497530534 L 190.24883194474725 106.39356990917146 Q 190.23314827290238 107.42545072711386 189.44747490556193 108.18759858668699 Q 188.66180153822145 108.94974644626012 187.5439306521172 108.9327558017615 Z M 275.7319714607559 131.36151702109376 Q 271.0264390997017 130.3359336753479 265.75534292749825 127.86679999257933 Q 264.86766990463923 127.49729139391303 264.435147260201 126.65486088517764 Q 264.0026246157628 125.81243037644225 264.2040784872486 124.88812937694945 Q 264.44216033536816 123.79577365027615 265.4052461843276 123.21351026697431 Q 266.368332033287 122.63124688367247 267.4606877599603 122.86932873179205 Q 267.8808245779116 122.9608986733765 269.3200611692686 123.62665991744154 Q 272.91815264766115 125.29106302760414 276.7834113728129 126.13350649018109 Q 283.0014362784917 127.48874162563095 286.5031275206486 124.95123409961224 Q 290.0048187628055 122.41372657359352 291.52056604744166 116.67078045081664 L 292.6043201904667 112.50604024793769 Q 289.7786191460289 114.97083427735745 286.4988526365076 115.884350912686 Q 283.2190861269862 116.79786754801455 279.83967759505913 116.14933537892921 Q 275.1341452340049 115.12375203318335 271.8786338284719 111.68561729346696 Q 268.62312242293893 108.24748255375057 267.4365233328628 103.19182754184257 Q 266.24992424278673 98.13617252993456 267.47696146001834 92.50633916938752 Q 268.70399867725 86.87650580884048 272.4588569235149 82.36974094361211 Q 276.21371516977973 77.86297607838377 281.41965337721996 75.78493267645155 Q 286.6255915846602 73.70688927451933 292.171397581617 74.91561250343408 Q 296.45679312472 75.84962590759548 300.6129058362675 79.39603016104896 Q 301.36377935726 75.95090825384852 303.9686276285579 76.51864189167212 Q 305.0609833552312 76.7567237397917 305.6944174144866 77.68695290111444 Q 306.327851473742 78.6171820624372 306.0714556373055 79.79356515270075 L 296.77766197699395 117.99261644196122 Q 294.7415804414906 126.5267795515334 289.0600209944799 129.77743475473207 Q 283.3784615474691 133.02808995793075 275.7319714607559 131.36151702109376 Z M 280.2662979853505 110.96118165697882 Q 285.391967164356 112.07833494430912 289.9445429080597 108.75765262017137 Q 294.4971186517634 105.43697029603364 296.4750293899875 96.36201502828615 L 299.05730174266904 84.51415676206028 Q 297.95094577334453 83.12877722231673 295.7958621753061 81.91090995308508 Q 293.64077857726767 80.69304268385345 291.37203976033084 80.19856499929742 Q 287.17067158081807 79.2828655834529 283.1562016196298 80.74040320928526 Q 279.14173165844153 82.19794083511762 276.19860410610823 85.60534985234706 Q 273.25547655377494 89.01275886957652 272.22989320802907 93.71829123063077 Q 271.4973336753535 97.07938577424093 271.96485692641966 100.79006051203628 Q 272.43238017748587 104.50073524983162 274.5007370824326 107.32805071043363 Q 276.5690939873793 110.15536617103565 280.2662979853505 110.96118165697882 Z" transform="matrix(1, 0, 0, 1, 38.023437, 13.962272)" style="fill: rgb(51, 51, 51); pointer-events: none; stroke-linecap: round; stroke-linejoin: round; white-space: pre;"/>
</svg>