<?xml version="1.0" encoding="utf-8"?>
<svg viewBox="0 0 836 836" xmlns="http://www.w3.org/2000/svg">
  <defs>
    <clipPath id="clip-2">
      <ellipse style="fill: rgb(77, 208, 209);" cx="418" cy="418" rx="418" ry="418">
      </ellipse>
    </clipPath>
    <clipPath id="clip-1">
      <path style="fill: rgb(255, 255, 0);" d="M 181.532 383.266 C 206.81 365.761 243.735 392.671 264.591 419.631 C 262.215 431.798 253.711 482.642 208.982 468.165 C 171.509 456.037 180.484 390.456 181.532 383.266 Z">
      </path>
    </clipPath>
    <clipPath id="clip-0">
      <path style="fill: rgb(255, 255, 0);" d="M 461.099 421.094 C 482.561 394.872 527.489 356.609 553.886 363.937 C 566.632 376.955 565.368 445.316 524.101 466.195 C 501.474 477.643 460.859 425.871 461.099 421.094 Z">
      </path>
    </clipPath>
  </defs>
  <ellipse style="fill: rgb(77, 208, 209);" cx="418" cy="418" rx="418" ry="418">
  </ellipse>
  <path style="clip-path: url(#clip-2);" d="M 227.128 789.814 C 225.252 788.313 250.444 704.632 251.227 705.258 C 185.849 663.413 97.284 592.347 96.097 518.318 C 95.467 479.038 98.416 451.544 136.76 400.233 C 149.296 383.457 155.495 368.705 165.402 347.682 C 168.245 342.447 172.002 322.242 172.739 312.64 C 174.036 295.727 177.916 79.158 180.059 78.696 C 209.317 72.384 279.18 193.254 343.762 230.633 C 399.8 215.105 451.888 227.948 483.597 240.444 C 493.102 218.279 615.008 52.856 634.014 60.166 C 635.998 61.293 637.407 64.293 637.737 70.777 C 638.529 86.321 637.958 114.074 639.295 145.193 C 641.858 204.851 650.211 275.246 656.34 303.863 C 719.602 362.407 739.144 432.371 743.268 482.297 C 752.6 595.265 663.661 649.615 632.269 678.906 L 687.793 737.201 C 720.463 836.819 266.67 910.386 227.128 789.814 Z">
  </path>
  <path style="fill: rgb(235, 214, 193);" d="M 185.287 85.193 C 183.82 85.197 181.55 164.89 181.045 193.351 C 180.552 221.156 177.586 305.202 181.466 306.962 C 189.375 306.217 211.154 293.016 235.88 279.382 C 258.749 266.772 281.43 257.829 286.136 246.349 C 292.139 231.705 268.281 182.034 256.202 163.025 C 241.655 140.132 195.242 85.168 185.287 85.193 Z">
  </path>
  <path style="fill: rgb(235, 214, 193);" d="M 525.821 251.428 C 523.634 247.163 530.791 207.265 539.365 187.098 C 553.842 153.045 597.051 100.798 601.72 95.258 C 608.275 87.275 625.147 70.221 629.733 70.791 C 634.319 71.361 633.509 140.868 635.783 177.787 C 638.079 215.057 647.14 274.414 644.004 284.299 C 643.256 286.928 640.639 293.053 637.13 295.725 C 633.04 298.839 631.58 299.386 623.022 300.804 C 614.464 302.222 525.561 255.312 525.821 251.428 Z">
  </path>
  <path style="fill: rgb(255, 255, 0);" d="M 181.532 383.391 C 206.81 365.886 243.735 392.796 264.591 419.756 C 262.215 431.923 253.711 482.767 208.982 468.29 C 171.509 456.162 180.484 390.581 181.532 383.391 Z">
  </path>
  <path style="clip-path: url(#clip-1);" d="M 214.237 377.814 C 215.805 376.103 255.364 400.879 253.796 402.59 C 256.069 403.412 241.164 438.364 216.589 424.401 C 194.677 411.951 211.348 375.279 214.237 377.814 Z">
  </path>
  <path style="fill: rgb(255, 255, 0);" d="M 461.099 421.094 C 482.561 394.872 527.489 356.609 553.886 363.937 C 566.632 376.955 565.368 445.316 524.101 466.195 C 501.474 477.643 460.859 425.871 461.099 421.094 Z">
  </path>
  <path style="clip-path: url(#clip-0);" d="M 530.309 422.12 C 503.094 430.128 501.149 374.769 502.527 376.248 L 544.003 358.575 C 547.477 359.055 557.168 414.217 530.309 422.12 Z">
  </path>
  <path style="fill: rgb(145, 145, 147);" d="M 283.383 550.429 C 286.505 545.626 297.992 547.472 310.132 549.256 C 328.679 551.981 349.003 555.884 351.927 557.585 C 356.007 561.472 345.124 574.497 337.662 588.769 C 333.134 597.429 329.458 605.145 324.475 610.882 C 316.571 600.582 315.641 595.998 307.029 581.34 C 296.601 563.591 279.02 557.142 283.383 550.429 Z">
  </path>
  <path style="fill: none; stroke: rgb(145, 145, 147); stroke-linecap: round; stroke-linejoin: round; stroke-width: 9px;" d="M 457.094 606.334 C 457.094 606.334 457.296 655.155 430.878 667.861 C 391.831 686.641 332.641 668.68 316.176 628.89 C 307.969 638.109 297.343 647.936 282.701 646.97 C 260.214 645.486 248.692 616.053 248.692 616.053">
  </path>
  <line style="fill: none; stroke: rgb(145, 145, 147); stroke-width: 9px; stroke-linecap: round; stroke-linejoin: round;" x1="327.59" y1="597.776" x2="315.497" y2="628.89">
  </line>
</svg>