<?xml version="1.0" encoding="utf-8"?>
<svg viewBox="0 0 1280 800" xmlns="http://www.w3.org/2000/svg">
  <defs>
    <filter id="outline-filter-2" color-interpolation-filters="sRGB" x="-500%" y="-500%" width="1000%" height="1000%">
      <feMorphology in="SourceAlpha" result="dilated" operator="dilate" radius="1"/>
      <feFlood flood-color="rgba(0,0,0,1)" result="flood"/>
      <feComposite in="flood" in2="dilated" operator="in" result="outline"/>
      <feMerge>
        <feMergeNode in="outline"/>
        <feMergeNode in="SourceGraphic"/>
      </feMerge>
    </filter>
    <filter id="outline-filter-1" color-interpolation-filters="sRGB" x="-500%" y="-500%" width="1000%" height="1000%">
      <feMorphology in="SourceAlpha" result="dilated" operator="dilate" radius="0"/>
      <feFlood flood-color="rgba(255,255,255,1)" result="flood"/>
      <feComposite in="flood" in2="dilated" operator="in" result="outline"/>
      <feMerge>
        <feMergeNode in="outline"/>
        <feMergeNode in="SourceGraphic"/>
      </feMerge>
    </filter>
    <mask id="mask-2">
      <polygon style="fill: rgb(255, 255, 255);" points="91 -41 -44 -41 -44 94">
        <title>briefcase-2-mask</title>
      </polygon>
    </mask>
    <clipPath id="clip-5">
      <path style="stroke-width: 3px; fill: rgb(255, 255, 0); stroke: rgb(0, 0, 0); stroke-opacity: 0; stroke-linejoin: round; stroke-linecap: round; pointer-events: none;" d="M 214.768 255.253 C 208.387 241.371 147.803 231.913 146.804 234.787 C 122.672 296.86 217.521 311.741 214.768 255.253 Z">
        <title>Left Eye Clip</title>
      </path>
    </clipPath>
    <clipPath id="clip-6">
      <path style="stroke-width: 3px; fill: rgb(255, 255, 0); stroke: rgb(0, 0, 0); stroke-opacity: 0; stroke-linejoin: round; stroke-linecap: round; pointer-events: none;" d="M 285.049 249.847 L 333.339 223.346 C 388.849 270.474 281.291 335.727 285.049 249.847 Z">
        <title>Right Eye Clip</title>
      </path>
    </clipPath>
    <mask id="mask-3">
      <polygon style="fill: rgb(255, 255, 255);" points="-44 94 91 94 91 -41">
        <title>briefcase-3-mask</title>
      </polygon>
    </mask>
    <filter id="saturate-filter-0" color-interpolation-filters="sRGB" x="-500%" y="-500%" width="1000%" height="1000%">
      <feColorMatrix type="saturate" values="0"/>
    </filter>
    <clipPath id="clip-7">
      <path style="stroke-width: 3px; fill: rgb(255, 255, 0); stroke: rgb(0, 0, 0); stroke-opacity: 0; stroke-linejoin: round; stroke-linecap: round; pointer-events: none;" d="M 214.768 255.253 C 208.387 241.371 147.803 231.913 146.804 234.787 C 122.672 296.86 217.521 311.741 214.768 255.253 Z">
        <title>Left Eye Clip</title>
      </path>
    </clipPath>
    <clipPath id="clip-8">
      <path style="stroke-width: 3px; fill: rgb(255, 255, 0); stroke: rgb(0, 0, 0); stroke-opacity: 0; stroke-linejoin: round; stroke-linecap: round; pointer-events: none;" d="M 285.049 249.847 L 333.339 223.346 C 388.849 270.474 281.291 335.727 285.049 249.847 Z">
        <title>Right Eye Clip</title>
      </path>
    </clipPath>
    <filter id="filter-10" color-interpolation-filters="sRGB" x="-500%" y="-500%" width="1000%" height="1000%">
      <feMorphology in="SourceAlpha" result="dilated" operator="dilate" radius="10"/>
      <feFlood flood-color="rgba(0,0,0,1)" result="flood"/>
      <feComposite in="flood" in2="dilated" operator="in" result="outline"/>
      <feMerge>
        <feMergeNode in="outline"/>
        <feMergeNode in="SourceGraphic"/>
      </feMerge>
    </filter>
    <filter id="filter-11" color-interpolation-filters="sRGB" x="-500%" y="-500%" width="1000%" height="1000%">
      <feMorphology in="SourceAlpha" result="dilated" operator="dilate" radius="0"/>
      <feFlood flood-color="rgba(255,255,255,1)" result="flood"/>
      <feComposite in="flood" in2="dilated" operator="in" result="outline"/>
      <feMerge>
        <feMergeNode in="outline"/>
        <feMergeNode in="SourceGraphic"/>
      </feMerge>
    </filter>
    <mask id="mask-5">
      <polygon style="fill: rgb(255, 255, 255);" points="91 -41 -44 -41 -44 94">
        <title>briefcase-2-mask</title>
      </polygon>
    </mask>
    <clipPath id="clip-9">
      <path style="stroke-width: 3px; fill: rgb(255, 255, 0); stroke: rgb(0, 0, 0); stroke-opacity: 0; stroke-linejoin: round; stroke-linecap: round; pointer-events: none;" d="M 214.768 255.253 C 208.387 241.371 147.803 231.913 146.804 234.787 C 122.672 296.86 217.521 311.741 214.768 255.253 Z">
        <title>Left Eye Clip</title>
      </path>
    </clipPath>
    <clipPath id="clip-10">
      <path style="stroke-width: 3px; fill: rgb(255, 255, 0); stroke: rgb(0, 0, 0); stroke-opacity: 0; stroke-linejoin: round; stroke-linecap: round; pointer-events: none;" d="M 285.049 249.847 L 333.339 223.346 C 388.849 270.474 281.291 335.727 285.049 249.847 Z">
        <title>Right Eye Clip</title>
      </path>
    </clipPath>
    <mask id="mask-9">
      <polygon style="fill: rgb(255, 255, 255);" points="-44 94 91 94 91 -41">
        <title>briefcase-3-mask</title>
      </polygon>
    </mask>
    <filter id="filter-12" color-interpolation-filters="sRGB" x="-500%" y="-500%" width="1000%" height="1000%">
      <feColorMatrix type="saturate" values="0"/>
    </filter>
    <clipPath id="clip-11">
      <path style="stroke-width: 3px; fill: rgb(255, 255, 0); stroke: rgb(0, 0, 0); stroke-opacity: 0; stroke-linejoin: round; stroke-linecap: round; pointer-events: none;" d="M 214.768 255.253 C 208.387 241.371 147.803 231.913 146.804 234.787 C 122.672 296.86 217.521 311.741 214.768 255.253 Z">
        <title>Left Eye Clip</title>
      </path>
    </clipPath>
    <clipPath id="clip-12">
      <path style="stroke-width: 3px; fill: rgb(255, 255, 0); stroke: rgb(0, 0, 0); stroke-opacity: 0; stroke-linejoin: round; stroke-linecap: round; pointer-events: none;" d="M 285.049 249.847 L 333.339 223.346 C 388.849 270.474 281.291 335.727 285.049 249.847 Z">
        <title>Right Eye Clip</title>
      </path>
    </clipPath>
    <filter id="filter-13" color-interpolation-filters="sRGB" x="-500%" y="-500%" width="1000%" height="1000%">
      <feGaussianBlur in="SourceAlpha" stdDeviation="4"/>
      <feOffset dx="0" dy="0"/>
      <feComponentTransfer result="offsetblur">
        <feFuncA id="feFuncA-3" type="linear" slope="2"/>
      </feComponentTransfer>
      <feFlood flood-color="rgba(0,0,0,0.3)"/>
      <feComposite in2="offsetblur" operator="in"/>
      <feMerge>
        <feMergeNode/>
        <feMergeNode in="SourceGraphic"/>
      </feMerge>
    </filter>
  </defs>
  <rect width="1280" height="800" style="">
    <title>Background</title>
  </rect>
  <g>
    <title>Description</title>
    <rect x="640" width="640" height="750" style="fill: none;" y="50">
      <title>Text Box</title>
    </rect>
    <path d="M 527.494 171.605 Q 532.108 171.605 535.123 172.728 Q 538.139 173.851 539.616 176.146 Q 541.093 178.441 541.093 181.981 Q 541.093 184.617 540.116 186.473 Q 539.14 188.328 537.553 189.549 Q 535.966 190.77 534.159 191.502 L 544.291 207.298 L 537.675 207.298 L 529.057 192.991 L 523.319 192.991 L 523.319 207.298 L 517.46 207.298 L 517.46 171.605 Z M 527.103 176.487 L 523.319 176.487 L 523.319 188.157 L 527.372 188.157 Q 531.449 188.157 533.292 186.644 Q 535.136 185.13 535.136 182.176 Q 535.136 179.075 533.17 177.781 Q 531.205 176.487 527.103 176.487 Z" transform="matrix(1, 0, 0, 1, 254.086884, 200.051605)" style="fill: rgb(255, 255, 255); white-space: pre;"/>
    <path d="M 559.562 179.759 Q 563.176 179.759 565.764 181.248 Q 568.351 182.737 569.743 185.472 Q 571.135 188.206 571.135 192.015 L 571.135 195.091 L 553.093 195.091 Q 553.19 199.022 555.204 201.146 Q 557.219 203.27 560.856 203.27 Q 563.444 203.27 565.507 202.769 Q 567.57 202.269 569.767 201.292 L 569.767 205.955 Q 567.741 206.907 565.641 207.347 Q 563.542 207.786 560.612 207.786 Q 556.633 207.786 553.618 206.236 Q 550.602 204.686 548.906 201.61 Q 547.209 198.533 547.209 193.968 Q 547.209 189.427 548.747 186.253 Q 550.285 183.079 553.068 181.419 Q 555.851 179.759 559.562 179.759 Z M 559.562 184.08 Q 556.852 184.08 555.18 185.838 Q 553.508 187.596 553.215 190.989 L 565.519 190.989 Q 565.495 188.963 564.848 187.401 Q 564.201 185.838 562.895 184.959 Q 561.589 184.08 559.562 184.08 Z" transform="matrix(1, 0, 0, 1, 254.086884, 200.051605)" style="fill: rgb(255, 255, 255); white-space: pre;"/>
    <path d="M 595.772 199.583 Q 595.772 202.244 594.478 204.075 Q 593.184 205.906 590.706 206.846 Q 588.228 207.786 584.64 207.786 Q 581.807 207.786 579.769 207.383 Q 577.73 206.981 575.924 206.151 L 575.924 201.194 Q 577.852 202.098 580.257 202.757 Q 582.662 203.416 584.81 203.416 Q 587.642 203.416 588.888 202.525 Q 590.133 201.634 590.133 200.145 Q 590.133 199.266 589.632 198.57 Q 589.132 197.874 587.777 197.13 Q 586.422 196.385 583.809 195.335 Q 581.246 194.31 579.488 193.284 Q 577.73 192.259 576.827 190.806 Q 575.924 189.354 575.924 187.083 Q 575.924 183.494 578.768 181.627 Q 581.612 179.759 586.3 179.759 Q 588.79 179.759 590.999 180.259 Q 593.209 180.76 595.333 181.712 L 593.526 186.033 Q 591.695 185.228 589.852 184.703 Q 588.009 184.178 586.104 184.178 Q 583.883 184.178 582.723 184.861 Q 581.563 185.545 581.563 186.815 Q 581.563 187.767 582.125 188.426 Q 582.686 189.085 584.066 189.744 Q 585.445 190.403 587.911 191.38 Q 590.328 192.308 592.098 193.321 Q 593.868 194.334 594.82 195.799 Q 595.772 197.264 595.772 199.583 Z" transform="matrix(1, 0, 0, 1, 254.086884, 200.051605)" style="fill: rgb(255, 255, 255); white-space: pre;"/>
    <path d="M 612.719 179.759 Q 616.332 179.759 618.92 181.248 Q 621.508 182.737 622.899 185.472 Q 624.291 188.206 624.291 192.015 L 624.291 195.091 L 606.249 195.091 Q 606.347 199.022 608.361 201.146 Q 610.375 203.27 614.013 203.27 Q 616.6 203.27 618.663 202.769 Q 620.726 202.269 622.924 201.292 L 622.924 205.955 Q 620.897 206.907 618.798 207.347 Q 616.698 207.786 613.768 207.786 Q 609.789 207.786 606.774 206.236 Q 603.759 204.686 602.062 201.61 Q 600.365 198.533 600.365 193.968 Q 600.365 189.427 601.903 186.253 Q 603.441 183.079 606.224 181.419 Q 609.008 179.759 612.719 179.759 Z M 612.719 184.08 Q 610.009 184.08 608.336 185.838 Q 606.664 187.596 606.371 190.989 L 618.676 190.989 Q 618.651 188.963 618.004 187.401 Q 617.357 185.838 616.051 184.959 Q 614.745 184.08 612.719 184.08 Z" transform="matrix(1, 0, 0, 1, 254.086884, 200.051605)" style="fill: rgb(255, 255, 255); white-space: pre;"/>
    <path d="M 640.823 203.148 Q 641.946 203.148 643.045 202.94 Q 644.143 202.733 645.047 202.44 L 645.047 206.785 Q 644.095 207.2 642.581 207.493 Q 641.067 207.786 639.432 207.786 Q 637.137 207.786 635.306 207.017 Q 633.474 206.248 632.4 204.368 Q 631.326 202.488 631.326 199.168 L 631.326 184.642 L 627.64 184.642 L 627.64 182.078 L 631.595 180.052 L 633.474 174.266 L 637.088 174.266 L 637.088 180.272 L 644.827 180.272 L 644.827 184.642 L 637.088 184.642 L 637.088 199.095 Q 637.088 201.146 638.113 202.147 Q 639.139 203.148 640.823 203.148 Z" transform="matrix(1, 0, 0, 1, 254.086884, 200.051605)" style="fill: rgb(255, 255, 255); white-space: pre;"/>
    <path d="M 674.11 179.759 Q 679.237 179.759 681.862 182.029 Q 684.486 184.3 684.486 189.11 L 684.486 207.298 L 680.409 207.298 L 679.31 203.465 L 679.115 203.465 Q 677.968 204.93 676.747 205.882 Q 675.526 206.834 673.927 207.31 Q 672.328 207.786 670.033 207.786 Q 667.616 207.786 665.712 206.895 Q 663.807 206.004 662.709 204.173 Q 661.61 202.342 661.61 199.534 Q 661.61 195.36 664.723 193.26 Q 667.836 191.16 674.135 190.941 L 678.822 190.77 L 678.822 189.354 Q 678.822 186.546 677.516 185.35 Q 676.21 184.153 673.842 184.153 Q 671.815 184.153 669.911 184.739 Q 668.007 185.325 666.2 186.18 L 664.345 182.127 Q 666.322 181.077 668.849 180.418 Q 671.376 179.759 674.11 179.759 Z M 678.798 194.383 L 675.307 194.505 Q 671.01 194.652 669.276 195.97 Q 667.543 197.288 667.543 199.583 Q 667.543 201.585 668.739 202.501 Q 669.935 203.416 671.889 203.416 Q 674.867 203.416 676.832 201.719 Q 678.798 200.023 678.798 196.727 Z" transform="matrix(1, 0, 0, 1, 254.086884, 200.051605)" style="fill: rgb(255, 255, 255); white-space: pre;"/>
    <path d="M 698.292 207.298 L 692.53 207.298 L 692.53 169.31 L 698.292 169.31 Z" transform="matrix(1, 0, 0, 1, 254.086884, 200.051605)" style="fill: rgb(255, 255, 255); white-space: pre;"/>
    <path d="M 712.229 207.298 L 706.468 207.298 L 706.468 169.31 L 712.229 169.31 Z" transform="matrix(1, 0, 0, 1, 254.086884, 200.051605)" style="fill: rgb(255, 255, 255); white-space: pre;"/>
    <path d="M 739.151 207.298 L 733.39 207.298 L 733.39 169.31 L 739.151 169.31 Z" transform="matrix(1, 0, 0, 1, 254.086884, 200.051605)" style="fill: rgb(255, 255, 255); white-space: pre;"/>
    <path d="M 753.08 180.272 L 753.08 207.298 L 747.343 207.298 L 747.343 180.272 Z M 750.248 169.92 Q 751.566 169.92 752.531 170.628 Q 753.495 171.336 753.495 173.069 Q 753.495 174.778 752.531 175.499 Q 751.566 176.219 750.248 176.219 Q 748.881 176.219 747.941 175.499 Q 747.001 174.778 747.001 173.069 Q 747.001 171.336 747.941 170.628 Q 748.881 169.92 750.248 169.92 Z" transform="matrix(1, 0, 0, 1, 254.086884, 200.051605)" style="fill: rgb(255, 255, 255); white-space: pre;"/>
    <path d="M 779.444 199.583 Q 779.444 202.244 778.15 204.075 Q 776.856 205.906 774.378 206.846 Q 771.9 207.786 768.311 207.786 Q 765.479 207.786 763.441 207.383 Q 761.402 206.981 759.596 206.151 L 759.596 201.194 Q 761.524 202.098 763.929 202.757 Q 766.334 203.416 768.482 203.416 Q 771.314 203.416 772.559 202.525 Q 773.805 201.634 773.805 200.145 Q 773.805 199.266 773.304 198.57 Q 772.804 197.874 771.449 197.13 Q 770.094 196.385 767.481 195.335 Q 764.918 194.31 763.16 193.284 Q 761.402 192.259 760.499 190.806 Q 759.596 189.354 759.596 187.083 Q 759.596 183.494 762.44 181.627 Q 765.284 179.759 769.972 179.759 Q 772.462 179.759 774.671 180.259 Q 776.881 180.76 779.005 181.712 L 777.198 186.033 Q 775.367 185.228 773.524 184.703 Q 771.681 184.178 769.776 184.178 Q 767.555 184.178 766.395 184.861 Q 765.235 185.545 765.235 186.815 Q 765.235 187.767 765.797 188.426 Q 766.358 189.085 767.738 189.744 Q 769.117 190.403 771.583 191.38 Q 774 192.308 775.77 193.321 Q 777.54 194.334 778.492 195.799 Q 779.444 197.264 779.444 199.583 Z" transform="matrix(1, 0, 0, 1, 254.086884, 200.051605)" style="fill: rgb(255, 255, 255); white-space: pre;"/>
    <path d="M 795.682 203.148 Q 796.806 203.148 797.904 202.94 Q 799.003 202.733 799.906 202.44 L 799.906 206.785 Q 798.954 207.2 797.44 207.493 Q 795.927 207.786 794.291 207.786 Q 791.996 207.786 790.165 207.017 Q 788.334 206.248 787.26 204.368 Q 786.185 202.488 786.185 199.168 L 786.185 184.642 L 782.499 184.642 L 782.499 182.078 L 786.454 180.052 L 788.334 174.266 L 791.947 174.266 L 791.947 180.272 L 799.686 180.272 L 799.686 184.642 L 791.947 184.642 L 791.947 199.095 Q 791.947 201.146 792.973 202.147 Q 793.998 203.148 795.682 203.148 Z" transform="matrix(1, 0, 0, 1, 254.086884, 200.051605)" style="fill: rgb(255, 255, 255); white-space: pre;"/>
    <path d="M 811.127 180.272 L 811.127 207.298 L 805.39 207.298 L 805.39 180.272 Z M 808.295 169.92 Q 809.613 169.92 810.578 170.628 Q 811.542 171.336 811.542 173.069 Q 811.542 174.778 810.578 175.499 Q 809.613 176.219 808.295 176.219 Q 806.928 176.219 805.988 175.499 Q 805.048 174.778 805.048 173.069 Q 805.048 171.336 805.988 170.628 Q 806.928 169.92 808.295 169.92 Z" transform="matrix(1, 0, 0, 1, 254.086884, 200.051605)" style="fill: rgb(255, 255, 255); white-space: pre;"/>
    <path d="M 833.414 179.759 Q 837.979 179.759 840.531 182.115 Q 843.082 184.471 843.082 189.671 L 843.082 207.298 L 837.345 207.298 L 837.345 190.745 Q 837.345 187.596 836.051 186.021 Q 834.757 184.446 832.047 184.446 Q 828.116 184.446 826.59 186.863 Q 825.064 189.28 825.064 193.87 L 825.064 207.298 L 819.327 207.298 L 819.327 180.272 L 823.795 180.272 L 824.6 183.934 L 824.918 183.934 Q 825.797 182.518 827.103 181.602 Q 828.409 180.687 830.033 180.223 Q 831.656 179.759 833.414 179.759 Z" transform="matrix(1, 0, 0, 1, 254.086884, 200.051605)" style="fill: rgb(255, 255, 255); white-space: pre;"/>
    <path d="M 858.807 219.31 Q 853.314 219.31 850.385 217.332 Q 847.455 215.355 847.455 211.79 Q 847.455 209.3 849.017 207.579 Q 850.58 205.858 853.485 205.198 Q 852.387 204.71 851.593 203.673 Q 850.8 202.635 850.8 201.365 Q 850.8 199.852 851.654 198.777 Q 852.509 197.703 854.218 196.702 Q 852.094 195.799 850.812 193.76 Q 849.53 191.722 849.53 188.963 Q 849.53 186.033 850.775 183.97 Q 852.02 181.907 854.413 180.821 Q 856.806 179.735 860.199 179.735 Q 860.932 179.735 861.798 179.82 Q 862.665 179.905 863.41 180.015 Q 864.154 180.125 864.545 180.247 L 873.895 180.247 L 873.895 183.445 L 869.306 184.3 Q 869.965 185.228 870.355 186.412 Q 870.746 187.596 870.746 188.987 Q 870.746 193.187 867.853 195.591 Q 864.96 197.996 859.882 197.996 Q 858.661 197.947 857.514 197.801 Q 856.635 198.338 856.171 198.985 Q 855.707 199.632 855.707 200.438 Q 855.707 201.097 856.171 201.5 Q 856.635 201.902 857.55 202.098 Q 858.466 202.293 859.784 202.293 L 864.447 202.293 Q 868.891 202.293 871.234 204.173 Q 873.578 206.053 873.578 209.691 Q 873.578 214.305 869.769 216.807 Q 865.961 219.31 858.807 219.31 Z M 859.027 215.281 Q 862.03 215.281 864.081 214.695 Q 866.132 214.11 867.182 213.023 Q 868.231 211.937 868.231 210.447 Q 868.231 209.129 867.572 208.421 Q 866.913 207.713 865.595 207.444 Q 864.276 207.176 862.323 207.176 L 858.075 207.176 Q 856.488 207.176 855.267 207.676 Q 854.047 208.177 853.375 209.129 Q 852.704 210.081 852.704 211.424 Q 852.704 213.279 854.352 214.28 Q 856 215.281 859.027 215.281 Z M 860.15 194.236 Q 862.665 194.236 863.886 192.857 Q 865.106 191.478 865.106 188.963 Q 865.106 186.229 863.849 184.861 Q 862.592 183.494 860.126 183.494 Q 857.709 183.494 856.452 184.886 Q 855.194 186.277 855.194 189.012 Q 855.194 191.478 856.452 192.857 Q 857.709 194.236 860.15 194.236 Z" transform="matrix(1, 0, 0, 1, 254.086884, 200.051605)" style="fill: rgb(255, 255, 255); white-space: pre;"/>
    <path d="M 896.975 199.583 Q 896.975 202.244 895.682 204.075 Q 894.388 205.906 891.91 206.846 Q 889.432 207.786 885.843 207.786 Q 883.011 207.786 880.972 207.383 Q 878.933 206.981 877.127 206.151 L 877.127 201.194 Q 879.056 202.098 881.46 202.757 Q 883.865 203.416 886.014 203.416 Q 888.846 203.416 890.091 202.525 Q 891.336 201.634 891.336 200.145 Q 891.336 199.266 890.835 198.57 Q 890.335 197.874 888.98 197.13 Q 887.625 196.385 885.013 195.335 Q 882.449 194.31 880.691 193.284 Q 878.933 192.259 878.03 190.806 Q 877.127 189.354 877.127 187.083 Q 877.127 183.494 879.971 181.627 Q 882.815 179.759 887.503 179.759 Q 889.993 179.759 892.203 180.259 Q 894.412 180.76 896.536 181.712 L 894.729 186.033 Q 892.898 185.228 891.055 184.703 Q 889.212 184.178 887.307 184.178 Q 885.086 184.178 883.926 184.861 Q 882.766 185.545 882.766 186.815 Q 882.766 187.767 883.328 188.426 Q 883.89 189.085 885.269 189.744 Q 886.648 190.403 889.114 191.38 Q 891.531 192.308 893.301 193.321 Q 895.071 194.334 896.023 195.799 Q 896.975 197.264 896.975 199.583 Z" transform="matrix(1, 0, 0, 1, 254.086884, 200.051605)" style="fill: rgb(255, 255, 255); white-space: pre;"/>
    <path d="M 540.148 282.274 L 536.73 269.7 Q 536.486 268.773 536.144 267.454 Q 535.803 266.136 535.461 264.732 Q 535.119 263.328 534.838 262.132 Q 534.557 260.936 534.411 260.277 L 534.216 260.277 Q 534.094 260.936 533.825 262.132 Q 533.557 263.328 533.215 264.744 Q 532.873 266.16 532.543 267.503 Q 532.214 268.846 531.945 269.798 L 528.356 282.274 L 522.057 282.274 L 514.489 255.247 L 520.3 255.247 L 523.815 268.675 Q 524.157 270.042 524.487 271.629 Q 524.816 273.216 525.06 274.656 Q 525.305 276.097 525.427 277.025 L 525.622 277.025 Q 525.72 276.365 525.891 275.352 Q 526.061 274.339 526.281 273.228 Q 526.501 272.117 526.721 271.129 Q 526.94 270.14 527.136 269.529 L 531.286 255.247 L 537.56 255.247 L 541.54 269.529 Q 541.808 270.457 542.126 271.861 Q 542.443 273.265 542.7 274.669 Q 542.956 276.072 543.029 277 L 543.224 277 Q 543.322 276.17 543.578 274.742 Q 543.835 273.314 544.177 271.69 Q 544.518 270.067 544.885 268.675 L 548.474 255.247 L 554.186 255.247 L 546.569 282.274 Z" transform="matrix(1, 0, 0, 1, 254.086884, 200.051605)" style="fill: rgb(255, 255, 255); white-space: pre;"/>
    <path d="M 564.557 255.272 L 564.557 282.298 L 558.819 282.298 L 558.819 255.272 Z M 561.724 244.92 Q 563.043 244.92 564.007 245.628 Q 564.972 246.336 564.972 248.069 Q 564.972 249.778 564.007 250.499 Q 563.043 251.219 561.724 251.219 Q 560.357 251.219 559.417 250.499 Q 558.477 249.778 558.477 248.069 Q 558.477 246.336 559.417 245.628 Q 560.357 244.92 561.724 244.92 Z" transform="matrix(1, 0, 0, 1, 254.086884, 200.051605)" style="fill: rgb(255, 255, 255); white-space: pre;"/>
    <path d="M 582.815 278.148 Q 583.938 278.148 585.037 277.94 Q 586.136 277.733 587.039 277.44 L 587.039 281.785 Q 586.087 282.2 584.573 282.493 Q 583.059 282.786 581.424 282.786 Q 579.129 282.786 577.298 282.017 Q 575.467 281.248 574.392 279.368 Q 573.318 277.488 573.318 274.168 L 573.318 259.642 L 569.632 259.642 L 569.632 257.078 L 573.587 255.052 L 575.467 249.266 L 579.08 249.266 L 579.08 255.272 L 586.819 255.272 L 586.819 259.642 L 579.08 259.642 L 579.08 274.095 Q 579.08 276.146 580.105 277.147 Q 581.131 278.148 582.815 278.148 Z" transform="matrix(1, 0, 0, 1, 254.086884, 200.051605)" style="fill: rgb(255, 255, 255); white-space: pre;"/>
    <path d="M 598.275 244.31 L 598.275 253.856 Q 598.275 255.345 598.19 256.761 Q 598.104 258.177 598.007 258.958 L 598.324 258.958 Q 599.179 257.542 600.424 256.627 Q 601.669 255.711 603.219 255.247 Q 604.769 254.783 606.527 254.783 Q 609.628 254.783 611.801 255.821 Q 613.974 256.859 615.133 259.031 Q 616.293 261.204 616.293 264.671 L 616.293 282.298 L 610.556 282.298 L 610.556 265.745 Q 610.556 262.596 609.262 261.021 Q 607.968 259.446 605.258 259.446 Q 602.645 259.446 601.12 260.533 Q 599.594 261.619 598.934 263.731 Q 598.275 265.843 598.275 268.87 L 598.275 282.298 L 592.538 282.298 L 592.538 244.31 Z" transform="matrix(1, 0, 0, 1, 254.086884, 200.051605)" style="fill: rgb(255, 255, 255); white-space: pre;"/>
    <path d="M 634.578 294.31 Q 633.308 294.31 632.161 294.127 Q 631.014 293.944 630.232 293.699 L 630.232 289.11 Q 631.062 289.354 631.844 289.476 Q 632.625 289.598 633.626 289.598 Q 635.213 289.598 636.25 288.719 Q 637.288 287.84 637.288 285.374 L 637.288 255.272 L 643.025 255.272 L 643.025 285.887 Q 643.025 288.353 642.159 290.257 Q 641.292 292.161 639.424 293.236 Q 637.557 294.31 634.578 294.31 Z M 636.946 248.069 Q 636.946 246.336 637.886 245.628 Q 638.826 244.92 640.193 244.92 Q 641.512 244.92 642.476 245.628 Q 643.44 246.336 643.44 248.069 Q 643.44 249.778 642.476 250.499 Q 641.512 251.219 640.193 251.219 Q 638.826 251.219 637.886 250.499 Q 636.946 249.778 636.946 248.069 Z" transform="matrix(1, 0, 0, 1, 254.086884, 200.051605)" style="fill: rgb(255, 255, 255); white-space: pre;"/>
    <path d="M 674.785 255.272 L 674.785 282.298 L 670.268 282.298 L 669.487 278.66 L 669.17 278.66 Q 668.315 280.052 666.997 280.967 Q 665.679 281.883 664.067 282.335 Q 662.456 282.786 660.674 282.786 Q 657.622 282.786 655.461 281.749 Q 653.301 280.711 652.153 278.538 Q 651.006 276.365 651.006 272.923 L 651.006 255.272 L 656.767 255.272 L 656.767 271.849 Q 656.767 274.998 658.049 276.561 Q 659.331 278.123 662.041 278.123 Q 664.653 278.123 666.191 277.049 Q 667.729 275.975 668.376 273.875 Q 669.023 271.776 669.023 268.724 L 669.023 255.272 Z" transform="matrix(1, 0, 0, 1, 254.086884, 200.051605)" style="fill: rgb(255, 255, 255); white-space: pre;"/>
    <path d="M 701.155 274.583 Q 701.155 277.244 699.861 279.075 Q 698.567 280.906 696.089 281.846 Q 693.611 282.786 690.022 282.786 Q 687.19 282.786 685.152 282.383 Q 683.113 281.981 681.307 281.151 L 681.307 276.194 Q 683.235 277.098 685.64 277.757 Q 688.045 278.416 690.193 278.416 Q 693.025 278.416 694.27 277.525 Q 695.516 276.634 695.516 275.145 Q 695.516 274.266 695.015 273.57 Q 694.515 272.874 693.16 272.13 Q 691.805 271.385 689.192 270.335 Q 686.629 269.31 684.871 268.284 Q 683.113 267.259 682.21 265.806 Q 681.307 264.354 681.307 262.083 Q 681.307 258.494 684.151 256.627 Q 686.995 254.759 691.682 254.759 Q 694.173 254.759 696.382 255.259 Q 698.592 255.76 700.716 256.712 L 698.909 261.033 Q 697.078 260.228 695.235 259.703 Q 693.391 259.178 691.487 259.178 Q 689.266 259.178 688.106 259.861 Q 686.946 260.545 686.946 261.815 Q 686.946 262.767 687.508 263.426 Q 688.069 264.085 689.449 264.744 Q 690.828 265.403 693.294 266.38 Q 695.711 267.308 697.481 268.321 Q 699.251 269.334 700.203 270.799 Q 701.155 272.264 701.155 274.583 Z" transform="matrix(1, 0, 0, 1, 254.086884, 200.051605)" style="fill: rgb(255, 255, 255); white-space: pre;"/>
    <path d="M 717.393 278.148 Q 718.516 278.148 719.615 277.94 Q 720.714 277.733 721.617 277.44 L 721.617 281.785 Q 720.665 282.2 719.151 282.493 Q 717.638 282.786 716.002 282.786 Q 713.707 282.786 711.876 282.017 Q 710.045 281.248 708.971 279.368 Q 707.896 277.488 707.896 274.168 L 707.896 259.642 L 704.21 259.642 L 704.21 257.078 L 708.165 255.052 L 710.045 249.266 L 713.658 249.266 L 713.658 255.272 L 721.397 255.272 L 721.397 259.642 L 713.658 259.642 L 713.658 274.095 Q 713.658 276.146 714.683 277.147 Q 715.709 278.148 717.393 278.148 Z" transform="matrix(1, 0, 0, 1, 254.086884, 200.051605)" style="fill: rgb(255, 255, 255); white-space: pre;"/>
    <path d="M 750.681 254.759 Q 755.807 254.759 758.432 257.029 Q 761.057 259.3 761.057 264.11 L 761.057 282.298 L 756.979 282.298 L 755.881 278.465 L 755.685 278.465 Q 754.538 279.93 753.317 280.882 Q 752.097 281.834 750.497 282.31 Q 748.898 282.786 746.603 282.786 Q 744.186 282.786 742.282 281.895 Q 740.378 281.004 739.279 279.173 Q 738.181 277.342 738.181 274.534 Q 738.181 270.36 741.293 268.26 Q 744.406 266.16 750.705 265.941 L 755.392 265.77 L 755.392 264.354 Q 755.392 261.546 754.086 260.35 Q 752.78 259.153 750.412 259.153 Q 748.386 259.153 746.481 259.739 Q 744.577 260.325 742.77 261.18 L 740.915 257.127 Q 742.892 256.077 745.419 255.418 Q 747.946 254.759 750.681 254.759 Z M 755.368 269.383 L 751.877 269.505 Q 747.58 269.652 745.847 270.97 Q 744.113 272.288 744.113 274.583 Q 744.113 276.585 745.309 277.501 Q 746.506 278.416 748.459 278.416 Q 751.437 278.416 753.403 276.719 Q 755.368 275.023 755.368 271.727 Z" transform="matrix(1, 0, 0, 1, 254.086884, 200.051605)" style="fill: rgb(255, 255, 255); white-space: pre;"/>
    <path d="M 792.974 282.786 Q 789.141 282.786 786.333 281.297 Q 783.525 279.808 782.012 276.732 Q 780.498 273.655 780.498 268.919 Q 780.498 263.987 782.158 260.862 Q 783.818 257.737 786.76 256.248 Q 789.702 254.759 793.511 254.759 Q 795.928 254.759 797.893 255.235 Q 799.858 255.711 801.225 256.395 L 799.516 260.985 Q 798.027 260.374 796.465 259.959 Q 794.902 259.544 793.462 259.544 Q 791.094 259.544 789.519 260.594 Q 787.944 261.644 787.175 263.719 Q 786.406 265.794 786.406 268.87 Q 786.406 271.849 787.187 273.887 Q 787.969 275.926 789.507 276.964 Q 791.045 278.001 793.291 278.001 Q 795.513 278.001 797.27 277.464 Q 799.028 276.927 800.591 276.072 L 800.591 281.053 Q 799.053 281.932 797.295 282.359 Q 795.537 282.786 792.974 282.786 Z" transform="matrix(1, 0, 0, 1, 254.086884, 200.051605)" style="fill: rgb(255, 255, 255); white-space: pre;"/>
    <path d="M 812.675 282.298 L 806.913 282.298 L 806.913 244.31 L 812.675 244.31 Z" transform="matrix(1, 0, 0, 1, 254.086884, 200.051605)" style="fill: rgb(255, 255, 255); white-space: pre;"/>
    <path d="M 826.588 255.272 L 826.588 282.298 L 820.85 282.298 L 820.85 255.272 Z M 823.756 244.92 Q 825.074 244.92 826.038 245.628 Q 827.003 246.336 827.003 248.069 Q 827.003 249.778 826.038 250.499 Q 825.074 251.219 823.756 251.219 Q 822.389 251.219 821.449 250.499 Q 820.509 249.778 820.509 248.069 Q 820.509 246.336 821.449 245.628 Q 822.389 244.92 823.756 244.92 Z" transform="matrix(1, 0, 0, 1, 254.086884, 200.051605)" style="fill: rgb(255, 255, 255); white-space: pre;"/>
    <path d="M 845.677 282.786 Q 841.844 282.786 839.036 281.297 Q 836.228 279.808 834.715 276.732 Q 833.201 273.655 833.201 268.919 Q 833.201 263.987 834.861 260.862 Q 836.521 257.737 839.463 256.248 Q 842.405 254.759 846.214 254.759 Q 848.631 254.759 850.596 255.235 Q 852.561 255.711 853.929 256.395 L 852.22 260.985 Q 850.73 260.374 849.168 259.959 Q 847.605 259.544 846.165 259.544 Q 843.797 259.544 842.222 260.594 Q 840.647 261.644 839.878 263.719 Q 839.109 265.794 839.109 268.87 Q 839.109 271.849 839.891 273.887 Q 840.672 275.926 842.21 276.964 Q 843.748 278.001 845.994 278.001 Q 848.216 278.001 849.974 277.464 Q 851.731 276.927 853.294 276.072 L 853.294 281.053 Q 851.756 281.932 849.998 282.359 Q 848.24 282.786 845.677 282.786 Z" transform="matrix(1, 0, 0, 1, 254.086884, 200.051605)" style="fill: rgb(255, 255, 255); white-space: pre;"/>
    <path d="M 865.353 244.31 L 865.353 262.669 Q 865.353 263.914 865.256 265.391 Q 865.158 266.868 865.06 268.162 L 865.182 268.162 Q 865.817 267.308 866.708 266.16 Q 867.599 265.013 868.405 264.158 L 876.657 255.272 L 883.249 255.272 L 872.433 266.893 L 883.957 282.298 L 877.219 282.298 L 868.576 270.433 L 865.353 273.192 L 865.353 282.298 L 859.616 282.298 L 859.616 244.31 Z" transform="matrix(1, 0, 0, 1, 254.086884, 200.051605)" style="fill: rgb(255, 255, 255); white-space: pre;"/>
    <path d="M 887.427 279.271 Q 887.427 277.269 888.464 276.451 Q 889.502 275.633 890.991 275.633 Q 892.48 275.633 893.542 276.451 Q 894.604 277.269 894.604 279.271 Q 894.604 281.224 893.542 282.09 Q 892.48 282.957 890.991 282.957 Q 889.502 282.957 888.464 282.09 Q 887.427 281.224 887.427 279.271 Z" transform="matrix(1, 0, 0, 1, 254.086884, 200.051605)" style="fill: rgb(255, 255, 255); white-space: pre;"/>
  </g>
  <g transform="matrix(1, 0, 0, 1, -170, -70)">
    <title>Browser</title>
    <g>
      <title>Window</title>
      <path style="fill: rgb(230, 230, 230); stroke-width: 4px;" d="M 170 120 H 780 A 30 30 0 0 1 810 150 V 870 H 170 V 120 Z">
        <title>Container</title>
      </path>
      <path style="fill: rgb(179, 179, 179);" d="M 170 120 H 780 A 30 30 0 0 1 810 150 V 195 H 170 V 120 Z">
        <title>Top</title>
      </path>
    </g>
    <g style="">
      <title>Toolbar</title>
      <rect y="195" width="640" height="75" style="stroke-width: 4px; fill: rgb(204, 204, 204);" x="170">
        <title>Container</title>
      </rect>
      <path d="M 751.758 247.5 C 751.132 247.5 750.601 247.281 750.165 246.843 C 749.727 246.406 749.508 245.874 749.508 245.25 C 749.508 244.624 749.727 244.093 750.165 243.657 C 750.601 243.219 751.132 243 751.758 243 C 752.382 243 752.914 243.219 753.352 243.657 C 753.789 244.093 754.008 244.624 754.008 245.25 C 754.008 245.874 753.789 246.406 753.352 246.843 C 752.914 247.281 752.382 247.5 751.758 247.5 Z M 751.758 234.75 C 751.132 234.75 750.601 234.531 750.165 234.093 C 749.727 233.656 749.508 233.124 749.508 232.5 C 749.508 231.874 749.727 231.343 750.165 230.907 C 750.601 230.469 751.132 230.25 751.758 230.25 C 752.382 230.25 752.914 230.469 753.352 230.907 C 753.789 231.343 754.008 231.874 754.008 232.5 C 754.008 233.124 753.789 233.656 753.352 234.093 C 752.914 234.531 752.382 234.75 751.758 234.75 Z M 751.758 222 C 751.132 222 750.601 221.781 750.165 221.343 C 749.727 220.906 749.508 220.374 749.508 219.75 C 749.508 219.124 749.727 218.593 750.165 218.157 C 750.601 217.719 751.132 217.5 751.758 217.5 C 752.382 217.5 752.914 217.719 753.352 218.157 C 753.789 218.593 754.008 219.124 754.008 219.75 C 754.008 220.374 753.789 220.906 753.352 221.343 C 752.914 221.781 752.382 222 751.758 222 Z" style="filter: url(#outline-filter-2);">
        <title>Vertical Dots</title>
      </path>
      <path d="M 667.62 250 L 659.812 250 C 659.095 250 658.466 249.724 657.928 249.17 C 657.389 248.616 657.12 247.951 657.12 247.174 L 657.12 239.275 C 658.437 239.126 659.566 238.609 660.508 237.727 C 661.45 236.845 661.921 235.76 661.921 234.475 C 661.921 233.188 661.45 232.103 660.508 231.221 C 659.566 230.339 658.437 229.823 657.12 229.674 L 657.12 221.775 C 657.12 221.087 657.389 220.467 657.928 219.913 C 658.466 219.359 659.095 219.083 659.812 219.083 L 667.709 219.083 C 668.039 217.887 668.607 216.907 669.415 216.145 C 670.222 215.382 671.225 215 672.421 215 C 673.588 215 674.636 215.382 675.562 216.145 C 676.491 216.907 677.118 217.887 677.446 219.083 L 685.345 219.083 C 686.033 219.083 686.654 219.359 687.207 219.913 C 687.761 220.467 688.037 221.087 688.037 221.775 L 688.037 229.674 C 689.234 230.003 690.213 230.63 690.975 231.558 C 691.738 232.484 692.12 233.532 692.12 234.699 C 692.12 235.895 691.738 236.898 690.975 237.705 C 690.213 238.513 689.234 239.081 688.037 239.411 L 688.037 247.308 C 688.037 248.025 687.761 248.654 687.207 249.192 C 686.654 249.731 686.033 250 685.345 250 L 677.537 250 C 677.388 248.564 676.819 247.405 675.832 246.523 C 674.845 245.641 673.708 245.199 672.421 245.199 C 671.285 245.199 670.238 245.641 669.281 246.523 C 668.323 247.405 667.77 248.564 667.62 250 Z">
        <title>Puzzle Piece</title>
      </path>
      <g transform="matrix(1, 0, 0, 1, 0, 2.5)">
        <title>Selected Hide-N-Seek Icon</title>
        <circle cx="577.731" cy="230" r="30" style="stroke: rgb(204, 204, 204); fill: rgb(179, 179, 179);">
          <title>Selection Indicator</title>
        </circle>
        <g style="" transform="matrix(0.486111, 0, 0, 0.486111, 566.3078, 219.494141)">
          <title>Hide-N-Seek-Icon</title>
          <path d="M -7.098 57.612 C -8.539 57.612 -9.8 57.045 -10.88 55.906 C -11.962 54.77 -12.5 53.442 -12.5 51.928 L -12.5 6.455 C -12.5 4.938 -11.962 3.61 -10.88 2.475 C -9.8 1.338 -8.539 0.768 -7.098 0.768 L 9.099 0.768 L 9.099 -8.704 C 9.099 -10.218 9.642 -11.546 10.718 -12.682 C 11.8 -13.821 13.06 -14.388 14.5 -14.388 L 32.5 -14.388 C 33.94 -14.388 35.2 -13.821 36.282 -12.682 C 37.358 -11.546 37.901 -10.218 37.901 -8.704 L 37.901 0.768 L 54.098 0.768 C 55.539 0.768 56.8 1.338 57.88 2.475 C 58.959 3.61 59.5 4.938 59.5 6.455 L 59.5 51.928 C 59.5 53.442 58.959 54.77 57.88 55.906 C 56.8 57.045 55.539 57.612 54.098 57.612 L -7.098 57.612 Z M 14.5 0.768 L 32.5 0.768 L 32.5 -8.704 L 14.5 -8.704 L 14.5 0.768 Z" style="paint-order: fill; stroke-width: 4px; stroke: rgb(0, 0, 0); filter: url(#outline-filter-1);">
            <title>briefcase-prevent-seam</title>
          </path>
          <path style="stroke-width: 3px; stroke-opacity: 0; stroke-linejoin: round; stroke-linecap: round; stroke: rgb(186, 218, 85);" d="M 13.695 42.728 C 5.181 42.499 -3.487 32.43 6.373 21.353 C 6.698 20.47 6.794 10.524 6.976 10.524 C 7.198 8.708 13.103 17.207 14.013 18.549 C 20.212 14.327 30.345 15.734 32.993 18.791 C 33.473 18.235 37.132 12.96 38.22 12.071 C 39.939 11.881 39.247 22.507 39.427 22.32 C 47.744 26.516 47.201 40.995 34.919 42.728">
            <title>head-prevent-seam</title>
          </path>
          <g style="mask: url(#mask-2);">
            <title>briefcase-upper-left</title>
            <path d="M -7.098 57.612 C -8.539 57.612 -9.8 57.045 -10.88 55.906 C -11.962 54.77 -12.5 53.442 -12.5 51.928 L -12.5 6.455 C -12.5 4.938 -11.962 3.61 -10.88 2.475 C -9.8 1.338 -8.539 0.768 -7.098 0.768 L 9.099 0.768 L 9.099 -8.704 C 9.099 -10.218 9.642 -11.546 10.718 -12.682 C 11.8 -13.821 13.06 -14.388 14.5 -14.388 L 32.5 -14.388 C 33.94 -14.388 35.2 -13.821 36.282 -12.682 C 37.358 -11.546 37.901 -10.218 37.901 -8.704 L 37.901 0.768 L 54.098 0.768 C 55.539 0.768 56.8 1.338 57.88 2.475 C 58.959 3.61 59.5 4.938 59.5 6.455 L 59.5 51.928 C 59.5 53.442 58.959 54.77 57.88 55.906 C 56.8 57.045 55.539 57.612 54.098 57.612 L -7.098 57.612 Z M 14.5 0.768 L 32.5 0.768 L 32.5 -8.704 L 14.5 -8.704 L 14.5 0.768 Z" style="stroke: rgb(0, 0, 0); fill: rgb(217, 168, 118);">
              <title>briefcase</title>
            </path>
            <g style="" transform="matrix(0.104132, 0, 0, 0.104132, -2.532993, -0.637008)">
              <title>Charm</title>
              <path style="stroke-width: 3px; stroke-opacity: 0; stroke-linejoin: round; stroke-linecap: round; pointer-events: none; stroke: rgb(186, 218, 85);" d="M 155.839 416.452 C 74.076 414.246 -9.163 317.554 85.521 211.184 C 88.642 202.702 89.567 107.184 91.313 107.184 C 93.447 89.745 150.151 171.369 158.89 184.258 C 218.415 143.708 315.724 157.224 341.157 186.578 C 345.771 181.239 380.902 130.582 391.357 122.043 C 407.86 120.218 401.213 222.267 402.943 220.47 C 482.816 260.759 477.595 399.802 359.651 416.452">
                <title>Head</title>
              </path>
              <g style="clip-path: url(#clip-5);">
                <title>Left Eye</title>
                <path style="stroke-width: 3px; stroke-opacity: 0; stroke-linejoin: round; stroke-linecap: round; pointer-events: none; fill: rgb(217, 217, 118);" d="M 214.768 255.253 C 208.387 241.371 147.803 231.913 146.804 234.787 C 122.672 296.86 217.521 311.741 214.768 255.253 Z">
                  <title>Left Eye Outer</title>
                </path>
                <path style="fill: black; stroke-width: 3px; stroke-linejoin: round; stroke-linecap: round; pointer-events: none; stroke: rgb(0, 0, 0);" d="M 169.232 238.541 C 164.496 240.806 158.937 268.553 168.383 274.458 C 181.214 279.697 208.634 252.081 198.524 245.975 C 194.377 243.919 170.2 237.767 169.232 238.541 Z">
                  <title>Left Eye Pupil</title>
                </path>
              </g>
            </g>
          </g>
          <g style="mask: url(#mask-3);">
            <title>briefcase-lower-right</title>
            <path d="M -7.098 57.612 C -8.539 57.612 -9.8 57.045 -10.88 55.906 C -11.962 54.77 -12.5 53.442 -12.5 51.928 L -12.5 6.455 C -12.5 4.938 -11.962 3.61 -10.88 2.475 C -9.8 1.338 -8.539 0.768 -7.098 0.768 L 9.099 0.768 L 9.099 -8.704 C 9.099 -10.218 9.642 -11.546 10.718 -12.682 C 11.8 -13.821 13.06 -14.388 14.5 -14.388 L 32.5 -14.388 C 33.94 -14.388 35.2 -13.821 36.282 -12.682 C 37.358 -11.546 37.901 -10.218 37.901 -8.704 L 37.901 0.768 L 54.098 0.768 C 55.539 0.768 56.8 1.338 57.88 2.475 C 58.959 3.61 59.5 4.938 59.5 6.455 L 59.5 51.928 C 59.5 53.442 58.959 54.77 57.88 55.906 C 56.8 57.045 55.539 57.612 54.098 57.612 L -7.098 57.612 Z M 14.5 0.768 L 32.5 0.768 L 32.5 -8.704 L 14.5 -8.704 L 14.5 0.768 Z" style="stroke: rgb(0, 0, 0);">
              <title>briefcase</title>
            </path>
          </g>
        </g>
      </g>
    </g>
    <g transform="matrix(1, 0, 0, 1, 0, -11)" style="">
      <title>Popup</title>
      <rect style="stroke-width: 0px; fill: rgb(245, 221, 178); filter: url(#filter-10);" x="214.428" y="300.12" width="375.257" height="532.3" rx="20" ry="20">
        <title>Container</title>
      </rect>
      <g style="" transform="matrix(2.207734, 0, 0, 2.207734, 350.174744, 373.868134)">
        <title>Hide-N-Seek-Icon</title>
        <path d="M -7.098 57.612 C -8.539 57.612 -9.8 57.045 -10.88 55.906 C -11.962 54.77 -12.5 53.442 -12.5 51.928 L -12.5 6.455 C -12.5 4.938 -11.962 3.61 -10.88 2.475 C -9.8 1.338 -8.539 0.768 -7.098 0.768 L 9.099 0.768 L 9.099 -8.704 C 9.099 -10.218 9.642 -11.546 10.718 -12.682 C 11.8 -13.821 13.06 -14.388 14.5 -14.388 L 32.5 -14.388 C 33.94 -14.388 35.2 -13.821 36.282 -12.682 C 37.358 -11.546 37.901 -10.218 37.901 -8.704 L 37.901 0.768 L 54.098 0.768 C 55.539 0.768 56.8 1.338 57.88 2.475 C 58.959 3.61 59.5 4.938 59.5 6.455 L 59.5 51.928 C 59.5 53.442 58.959 54.77 57.88 55.906 C 56.8 57.045 55.539 57.612 54.098 57.612 L -7.098 57.612 Z M 14.5 0.768 L 32.5 0.768 L 32.5 -8.704 L 14.5 -8.704 L 14.5 0.768 Z" style="paint-order: fill; stroke-width: 4px; stroke: rgb(0, 0, 0); filter: url(#filter-11);">
          <title>briefcase-prevent-seam</title>
        </path>
        <path style="stroke-width: 3px; stroke-opacity: 0; stroke-linejoin: round; stroke-linecap: round; stroke: rgb(186, 218, 85);" d="M 13.695 42.728 C 5.181 42.499 -3.487 32.43 6.373 21.353 C 6.698 20.47 6.794 10.524 6.976 10.524 C 7.198 8.708 13.103 17.207 14.013 18.549 C 20.212 14.327 30.345 15.734 32.993 18.791 C 33.473 18.235 37.132 12.96 38.22 12.071 C 39.939 11.881 39.247 22.507 39.427 22.32 C 47.744 26.516 47.201 40.995 34.919 42.728">
          <title>head-prevent-seam</title>
        </path>
        <g style="mask: url(#mask-5);">
          <title>briefcase-upper-left</title>
          <path d="M -7.098 57.612 C -8.539 57.612 -9.8 57.045 -10.88 55.906 C -11.962 54.77 -12.5 53.442 -12.5 51.928 L -12.5 6.455 C -12.5 4.938 -11.962 3.61 -10.88 2.475 C -9.8 1.338 -8.539 0.768 -7.098 0.768 L 9.099 0.768 L 9.099 -8.704 C 9.099 -10.218 9.642 -11.546 10.718 -12.682 C 11.8 -13.821 13.06 -14.388 14.5 -14.388 L 32.5 -14.388 C 33.94 -14.388 35.2 -13.821 36.282 -12.682 C 37.358 -11.546 37.901 -10.218 37.901 -8.704 L 37.901 0.768 L 54.098 0.768 C 55.539 0.768 56.8 1.338 57.88 2.475 C 58.959 3.61 59.5 4.938 59.5 6.455 L 59.5 51.928 C 59.5 53.442 58.959 54.77 57.88 55.906 C 56.8 57.045 55.539 57.612 54.098 57.612 L -7.098 57.612 Z M 14.5 0.768 L 32.5 0.768 L 32.5 -8.704 L 14.5 -8.704 L 14.5 0.768 Z" style="stroke: rgb(0, 0, 0); fill: rgb(217, 168, 118);">
            <title>briefcase</title>
          </path>
          <g style="" transform="matrix(0.104132, 0, 0, 0.104132, -2.532993, -0.637008)">
            <title>Charm</title>
            <path style="stroke-width: 3px; stroke-opacity: 0; stroke-linejoin: round; stroke-linecap: round; pointer-events: none; stroke: rgb(186, 218, 85);" d="M 155.839 416.452 C 74.076 414.246 -9.163 317.554 85.521 211.184 C 88.642 202.702 89.567 107.184 91.313 107.184 C 93.447 89.745 150.151 171.369 158.89 184.258 C 218.415 143.708 315.724 157.224 341.157 186.578 C 345.771 181.239 380.902 130.582 391.357 122.043 C 407.86 120.218 401.213 222.267 402.943 220.47 C 482.816 260.759 477.595 399.802 359.651 416.452">
              <title>Head</title>
            </path>
            <g style="clip-path: url(#clip-9);">
              <title>Left Eye</title>
              <path style="stroke-width: 3px; stroke-opacity: 0; stroke-linejoin: round; stroke-linecap: round; pointer-events: none; fill: rgb(217, 217, 118);" d="M 214.768 255.253 C 208.387 241.371 147.803 231.913 146.804 234.787 C 122.672 296.86 217.521 311.741 214.768 255.253 Z">
                <title>Left Eye Outer</title>
              </path>
              <path style="fill: black; stroke-width: 3px; stroke-linejoin: round; stroke-linecap: round; pointer-events: none; stroke: rgb(0, 0, 0);" d="M 169.232 238.541 C 164.496 240.806 158.937 268.553 168.383 274.458 C 181.214 279.697 208.634 252.081 198.524 245.975 C 194.377 243.919 170.2 237.767 169.232 238.541 Z">
                <title>Left Eye Pupil</title>
              </path>
            </g>
          </g>
        </g>
        <g style="mask: url(#mask-9);">
          <title>briefcase-lower-right</title>
          <path d="M -7.098 57.612 C -8.539 57.612 -9.8 57.045 -10.88 55.906 C -11.962 54.77 -12.5 53.442 -12.5 51.928 L -12.5 6.455 C -12.5 4.938 -11.962 3.61 -10.88 2.475 C -9.8 1.338 -8.539 0.768 -7.098 0.768 L 9.099 0.768 L 9.099 -8.704 C 9.099 -10.218 9.642 -11.546 10.718 -12.682 C 11.8 -13.821 13.06 -14.388 14.5 -14.388 L 32.5 -14.388 C 33.94 -14.388 35.2 -13.821 36.282 -12.682 C 37.358 -11.546 37.901 -10.218 37.901 -8.704 L 37.901 0.768 L 54.098 0.768 C 55.539 0.768 56.8 1.338 57.88 2.475 C 58.959 3.61 59.5 4.938 59.5 6.455 L 59.5 51.928 C 59.5 53.442 58.959 54.77 57.88 55.906 C 56.8 57.045 55.539 57.612 54.098 57.612 L -7.098 57.612 Z M 14.5 0.768 L 32.5 0.768 L 32.5 -8.704 L 14.5 -8.704 L 14.5 0.768 Z" style="stroke: rgb(0, 0, 0);">
            <title>briefcase</title>
          </path>
        </g>
      </g>
      <path d="M 344.974 536.089 L 341.353 536.089 L 341.353 528.694 L 334.568 528.694 L 334.568 536.089 L 330.935 536.089 L 330.935 518.956 L 334.568 518.956 L 334.568 525.671 L 341.353 525.671 L 341.353 518.956 L 344.974 518.956 Z" style="fill: rgb(51, 51, 51); white-space: pre;"/>
      <path d="M 352.588 522.987 L 352.588 536.089 L 349.013 536.089 L 349.013 522.987 Z M 350.806 517.855 Q 351.603 517.855 352.177 518.224 Q 352.752 518.593 352.752 519.601 Q 352.752 520.597 352.177 520.978 Q 351.603 521.359 350.806 521.359 Q 349.998 521.359 349.429 520.978 Q 348.861 520.597 348.861 519.601 Q 348.861 518.593 349.429 518.224 Q 349.998 517.855 350.806 517.855 Z" style="fill: rgb(51, 51, 51); white-space: pre;"/>
      <path d="M 360.49 536.323 Q 358.299 536.323 356.922 534.607 Q 355.545 532.89 355.545 529.562 Q 355.545 526.198 356.939 524.47 Q 358.334 522.741 360.584 522.741 Q 361.521 522.741 362.236 522.999 Q 362.951 523.257 363.472 523.691 Q 363.994 524.124 364.357 524.663 L 364.474 524.663 Q 364.404 524.288 364.304 523.556 Q 364.205 522.823 364.205 522.05 L 364.205 517.855 L 367.791 517.855 L 367.791 536.089 L 365.049 536.089 L 364.357 534.39 L 364.205 534.39 Q 363.865 534.929 363.355 535.368 Q 362.845 535.808 362.142 536.066 Q 361.439 536.323 360.49 536.323 Z M 361.744 533.476 Q 363.209 533.476 363.812 532.603 Q 364.416 531.73 364.451 529.972 L 364.451 529.585 Q 364.451 527.675 363.865 526.661 Q 363.279 525.648 361.685 525.648 Q 360.502 525.648 359.834 526.667 Q 359.166 527.687 359.166 529.609 Q 359.166 531.53 359.84 532.503 Q 360.513 533.476 361.744 533.476 Z" style="fill: rgb(51, 51, 51); white-space: pre;"/>
      <path d="M 376.931 522.741 Q 378.748 522.741 380.06 523.439 Q 381.373 524.136 382.088 525.46 Q 382.802 526.784 382.802 528.694 L 382.802 530.429 L 374.353 530.429 Q 374.412 531.941 375.261 532.802 Q 376.111 533.663 377.623 533.663 Q 378.877 533.663 379.92 533.405 Q 380.963 533.148 382.064 532.632 L 382.064 535.398 Q 381.091 535.878 380.031 536.101 Q 378.97 536.323 377.459 536.323 Q 375.49 536.323 373.972 535.597 Q 372.455 534.87 371.593 533.382 Q 370.732 531.894 370.732 529.632 Q 370.732 527.335 371.511 525.806 Q 372.291 524.276 373.685 523.509 Q 375.08 522.741 376.931 522.741 Z M 376.955 525.284 Q 375.912 525.284 375.226 525.952 Q 374.541 526.62 374.435 528.05 L 379.451 528.05 Q 379.439 527.253 379.164 526.632 Q 378.888 526.011 378.343 525.648 Q 377.799 525.284 376.955 525.284 Z" style="fill: rgb(51, 51, 51); white-space: pre;"/>
      <path d="M 399.377 522.741 Q 401.474 522.741 402.752 523.884 Q 404.029 525.026 404.029 527.546 L 404.029 536.089 L 400.455 536.089 L 400.455 528.437 Q 400.455 527.03 399.945 526.316 Q 399.435 525.601 398.345 525.601 Q 396.705 525.601 396.107 526.714 Q 395.509 527.827 395.509 529.925 L 395.509 536.089 L 391.935 536.089 L 391.935 522.987 L 394.666 522.987 L 395.146 524.663 L 395.345 524.663 Q 395.767 523.984 396.394 523.562 Q 397.021 523.14 397.789 522.941 Q 398.556 522.741 399.377 522.741 Z" style="fill: rgb(51, 51, 51); white-space: pre;"/>
      <path d="M 410.67 518.956 L 410.189 525.144 L 407.881 525.144 L 407.4 518.956 Z" style="fill: rgb(51, 51, 51); white-space: pre;"/>
      <path d="M 430.72 531.331 Q 430.72 532.855 429.982 533.98 Q 429.244 535.105 427.832 535.714 Q 426.42 536.323 424.404 536.323 Q 423.513 536.323 422.664 536.206 Q 421.814 536.089 421.035 535.86 Q 420.256 535.632 419.552 535.292 L 419.552 531.917 Q 420.771 532.456 422.084 532.89 Q 423.396 533.323 424.685 533.323 Q 425.576 533.323 426.121 533.089 Q 426.666 532.855 426.912 532.444 Q 427.158 532.034 427.158 531.507 Q 427.158 530.862 426.724 530.405 Q 426.291 529.948 425.535 529.55 Q 424.779 529.151 423.83 528.694 Q 423.232 528.413 422.529 528.009 Q 421.826 527.605 421.193 527.019 Q 420.56 526.433 420.156 525.595 Q 419.752 524.757 419.752 523.585 Q 419.752 522.05 420.455 520.96 Q 421.158 519.87 422.465 519.29 Q 423.771 518.71 425.552 518.71 Q 426.888 518.71 428.101 519.021 Q 429.314 519.331 430.638 519.917 L 429.466 522.741 Q 428.283 522.261 427.345 521.997 Q 426.408 521.734 425.435 521.734 Q 424.756 521.734 424.275 521.95 Q 423.795 522.167 423.549 522.56 Q 423.302 522.952 423.302 523.468 Q 423.302 524.077 423.66 524.493 Q 424.017 524.909 424.738 525.296 Q 425.459 525.683 426.537 526.198 Q 427.849 526.819 428.781 527.493 Q 429.713 528.167 430.216 529.075 Q 430.72 529.984 430.72 531.331 Z" style="fill: rgb(51, 51, 51); white-space: pre;"/>
      <path d="M 438.947 522.741 Q 440.763 522.741 442.076 523.439 Q 443.388 524.136 444.103 525.46 Q 444.818 526.784 444.818 528.694 L 444.818 530.429 L 436.369 530.429 Q 436.427 531.941 437.277 532.802 Q 438.127 533.663 439.638 533.663 Q 440.892 533.663 441.935 533.405 Q 442.978 533.148 444.08 532.632 L 444.08 535.398 Q 443.107 535.878 442.047 536.101 Q 440.986 536.323 439.474 536.323 Q 437.506 536.323 435.988 535.597 Q 434.47 534.87 433.609 533.382 Q 432.748 531.894 432.748 529.632 Q 432.748 527.335 433.527 525.806 Q 434.306 524.276 435.701 523.509 Q 437.095 522.741 438.947 522.741 Z M 438.97 525.284 Q 437.927 525.284 437.242 525.952 Q 436.556 526.62 436.451 528.05 L 441.466 528.05 Q 441.455 527.253 441.179 526.632 Q 440.904 526.011 440.359 525.648 Q 439.814 525.284 438.97 525.284 Z" style="fill: rgb(51, 51, 51); white-space: pre;"/>
      <path d="M 453.134 522.741 Q 454.951 522.741 456.263 523.439 Q 457.576 524.136 458.291 525.46 Q 459.006 526.784 459.006 528.694 L 459.006 530.429 L 450.556 530.429 Q 450.615 531.941 451.465 532.802 Q 452.314 533.663 453.826 533.663 Q 455.08 533.663 456.123 533.405 Q 457.166 533.148 458.267 532.632 L 458.267 535.398 Q 457.295 535.878 456.234 536.101 Q 455.174 536.323 453.662 536.323 Q 451.693 536.323 450.175 535.597 Q 448.658 534.87 447.797 533.382 Q 446.935 531.894 446.935 529.632 Q 446.935 527.335 447.715 525.806 Q 448.494 524.276 449.888 523.509 Q 451.283 522.741 453.134 522.741 Z M 453.158 525.284 Q 452.115 525.284 451.429 525.952 Q 450.744 526.62 450.638 528.05 L 455.654 528.05 Q 455.642 527.253 455.367 526.632 Q 455.091 526.011 454.547 525.648 Q 454.002 525.284 453.158 525.284 Z" style="fill: rgb(51, 51, 51); white-space: pre;"/>
      <path d="M 465.478 517.855 L 465.478 526.011 Q 465.478 526.749 465.42 527.487 Q 465.361 528.226 465.291 528.964 L 465.338 528.964 Q 465.701 528.448 466.082 527.944 Q 466.463 527.441 466.896 526.972 L 470.564 522.987 L 474.595 522.987 L 469.392 528.671 L 474.912 536.089 L 470.787 536.089 L 467.013 530.78 L 465.478 532.011 L 465.478 536.089 L 461.904 536.089 L 461.904 517.855 Z" style="fill: rgb(51, 51, 51); white-space: pre;"/>
      <g style="">
        <title>Options Panel</title>
        <rect style="fill: rgb(217, 168, 118);" x="232.738" y="581.136" width="338.637" height="232.9" rx="20" ry="20">
          <title>Container</title>
        </rect>
        <g transform="matrix(1.812327, 0, 0, 1.812327, 326.935547, 599.928162)" style="">
          <title>LinkedIn Logo</title>
          <polygon class="st0" points="0 3.1 3.2 3.1 3.2 14.9 9.2 14.9 9.2 17.9 0 17.9" style="fill: rgb(10, 102, 194);"/>
          <path class="st0" d="m10.7 7.9h3.1v10h-3.1v-10zm1.5-5c1 0 1.8 0.8 1.8 1.8s-0.8 1.8-1.8 1.8-1.8-0.8-1.8-1.8 0.8-1.8 1.8-1.8" style="fill: rgb(10, 102, 194);"/>
          <polygon class="st0" points="26.8 3.1 29.9 3.1 29.9 11.9 33.4 7.9 37.2 7.9 33.2 12.5 37.2 17.9 33.3 17.9 29.9 12.9 29.9 12.9 29.9 17.9 26.8 17.9" style="fill: rgb(10, 102, 194);"/>
          <path class="st0" d="m15.5 7.9h3v1.4c0.6-1 1.7-1.7 2.9-1.6 3.2 0 3.7 2.1 3.7 4.8v5.5h-3.1v-5c0-1.2 0-2.7-1.6-2.7s-1.9 1.3-1.9 2.6v5h-3.1v-10z" style="fill: rgb(10, 102, 194);"/>
          <path class="st0" d="m43.8 11.7c0-1-0.8-1.9-1.8-1.9h-0.1c-1.1-0.1-2.1 0.8-2.2 1.9h4.1zm2.6 4.5c-1 1.3-2.6 2-4.3 2-3.1 0-5.6-2.1-5.6-5.3s2.5-5.3 5.6-5.3c2.9 0 4.7 2.1 4.7 5.3v1h-7.2c0.2 1.1 1.2 2 2.3 2 0.9 0 1.7-0.5 2.2-1.2l2.3 1.5z" style="fill: rgb(10, 102, 194);"/>
          <path class="st0" d="m53.4 10.3c-1.6 0-2.5 1-2.5 2.6s0.9 2.6 2.5 2.6 2.5-1 2.5-2.6-0.9-2.6-2.5-2.6m5.4 7.6h-2.9v-1.3c-0.7 1-1.9 1.6-3.1 1.6-3 0-5-2.2-5-5.2 0-2.8 1.7-5.4 4.6-5.4 1.3 0 2.5 0.4 3.2 1.3v-5.8h3.1l0.1 14.8z" style="fill: rgb(10, 102, 194);"/>
          <path class="st0" d="m81.3 0h-17.9c-0.8 0-1.5 0.7-1.6 1.5v18c0 0.8 0.7 1.5 1.6 1.5h17.9c0.8 0 1.5-0.7 1.6-1.5v-18c0-0.8-0.7-1.5-1.6-1.5zm-13.2 17.9h-3.1v-10h3.1v10zm-1.6-11.4c-1 0-1.8-0.8-1.8-1.8s0.8-1.8 1.8-1.8 1.8 0.8 1.8 1.8-0.8 1.8-1.8 1.8zm13.3 11.4h-3.1v-4.9c0-1.2 0-2.7-1.6-2.7s-1.9 1.3-1.9 2.6v5h-3.1v-10h3v1.4c0.6-1 1.7-1.7 2.9-1.6 3.2 0 3.7 2.1 3.7 4.8l0.1 5.4z" style="fill: rgb(10, 102, 194);"/>
        </g>
        <g style="" transform="matrix(1, 0, 0, 1, 58.202515, -1.324005)">
          <title>Remove Hidden Jobs Button</title>
          <rect style="stroke: rgb(153, 0, 0); fill: rgba(255, 255, 255, 0.1);" x="206.984" y="656.034" width="273.739" height="59.657" rx="10" ry="10">
            <title>Container</title>
          </rect>
          <path d="M 238.815 686.365 Q 238.815 688.294 238.104 689.587 Q 237.393 690.88 236.046 691.533 Q 234.698 692.185 232.776 692.185 L 229.643 692.185 L 229.643 680.763 L 233.128 680.763 Q 234.878 680.763 236.151 681.4 Q 237.424 682.037 238.12 683.283 Q 238.815 684.529 238.815 686.365 Z M 237.135 686.412 Q 237.135 684.943 236.659 683.99 Q 236.182 683.037 235.26 682.572 Q 234.339 682.107 233.003 682.107 L 231.245 682.107 L 231.245 690.826 L 232.721 690.826 Q 234.932 690.826 236.034 689.716 Q 237.135 688.607 237.135 686.412 Z" style="fill: rgb(153, 0, 0); white-space: pre;"/>
          <path d="M 248.643 687.865 Q 248.643 688.927 248.366 689.759 Q 248.089 690.591 247.561 691.165 Q 247.034 691.74 246.292 692.04 Q 245.549 692.341 244.612 692.341 Q 243.737 692.341 243.007 692.04 Q 242.276 691.74 241.745 691.165 Q 241.214 690.591 240.924 689.759 Q 240.635 688.927 240.635 687.865 Q 240.635 686.451 241.12 685.455 Q 241.604 684.458 242.507 683.939 Q 243.409 683.419 244.659 683.419 Q 245.846 683.419 246.745 683.943 Q 247.643 684.466 248.143 685.458 Q 248.643 686.451 248.643 687.865 Z M 242.245 687.865 Q 242.245 688.857 242.499 689.572 Q 242.753 690.287 243.28 690.669 Q 243.807 691.052 244.643 691.052 Q 245.464 691.052 245.995 690.669 Q 246.526 690.287 246.776 689.572 Q 247.026 688.857 247.026 687.865 Q 247.026 686.88 246.776 686.177 Q 246.526 685.474 245.999 685.099 Q 245.471 684.724 244.628 684.724 Q 243.393 684.724 242.819 685.548 Q 242.245 686.372 242.245 687.865 Z" style="fill: rgb(153, 0, 0); white-space: pre;"/>
          <path d="M 259.245 683.419 Q 260.737 683.419 261.538 684.169 Q 262.339 684.919 262.339 686.576 L 262.339 692.185 L 260.784 692.185 L 260.784 686.787 Q 260.784 685.755 260.331 685.236 Q 259.878 684.716 258.94 684.716 Q 257.604 684.716 257.069 685.505 Q 256.534 686.294 256.534 687.794 L 256.534 692.185 L 254.964 692.185 L 254.964 683.576 L 256.206 683.576 L 256.432 684.787 L 256.518 684.787 Q 256.792 684.333 257.214 684.029 Q 257.635 683.724 258.155 683.572 Q 258.674 683.419 259.245 683.419 Z" style="fill: rgb(153, 0, 0); white-space: pre;"/>
          <path d="M 272.487 687.865 Q 272.487 688.927 272.21 689.759 Q 271.932 690.591 271.405 691.165 Q 270.878 691.74 270.135 692.04 Q 269.393 692.341 268.456 692.341 Q 267.581 692.341 266.85 692.04 Q 266.12 691.74 265.589 691.165 Q 265.057 690.591 264.768 689.759 Q 264.479 688.927 264.479 687.865 Q 264.479 686.451 264.964 685.455 Q 265.448 684.458 266.35 683.939 Q 267.253 683.419 268.503 683.419 Q 269.69 683.419 270.589 683.943 Q 271.487 684.466 271.987 685.458 Q 272.487 686.451 272.487 687.865 Z M 266.089 687.865 Q 266.089 688.857 266.342 689.572 Q 266.596 690.287 267.124 690.669 Q 267.651 691.052 268.487 691.052 Q 269.307 691.052 269.839 690.669 Q 270.37 690.287 270.62 689.572 Q 270.87 688.857 270.87 687.865 Q 270.87 686.88 270.62 686.177 Q 270.37 685.474 269.842 685.099 Q 269.315 684.724 268.471 684.724 Q 267.237 684.724 266.663 685.548 Q 266.089 686.372 266.089 687.865 Z" style="fill: rgb(153, 0, 0); white-space: pre;"/>
          <path d="M 277.651 691.068 Q 277.987 691.068 278.331 691.009 Q 278.674 690.951 278.924 690.857 L 278.924 692.06 Q 278.659 692.177 278.217 692.259 Q 277.776 692.341 277.315 692.341 Q 276.612 692.341 276.042 692.099 Q 275.471 691.857 275.132 691.271 Q 274.792 690.685 274.792 689.646 L 274.792 684.787 L 273.596 684.787 L 273.596 684.06 L 274.846 683.482 L 275.401 681.622 L 276.37 681.622 L 276.37 683.576 L 278.862 683.576 L 278.862 684.787 L 276.37 684.787 L 276.37 689.622 Q 276.37 690.349 276.717 690.708 Q 277.065 691.068 277.651 691.068 Z" style="fill: rgb(153, 0, 0); white-space: pre;"/>
          <path d="M 287.799 692.341 Q 286.221 692.341 285.28 691.224 Q 284.339 690.107 284.339 687.912 Q 284.339 685.693 285.296 684.556 Q 286.253 683.419 287.839 683.419 Q 288.503 683.419 289.003 683.599 Q 289.503 683.779 289.866 684.076 Q 290.229 684.372 290.471 684.747 L 290.565 684.747 Q 290.526 684.505 290.487 684.068 Q 290.448 683.63 290.448 683.302 L 290.448 680.029 L 292.018 680.029 L 292.018 692.185 L 290.776 692.185 L 290.518 690.99 L 290.448 690.99 Q 290.214 691.365 289.85 691.673 Q 289.487 691.982 288.983 692.162 Q 288.479 692.341 287.799 692.341 Z M 288.167 691.06 Q 289.44 691.06 289.967 690.326 Q 290.495 689.591 290.503 688.146 L 290.503 687.904 Q 290.503 686.365 289.999 685.54 Q 289.495 684.716 288.151 684.716 Q 287.057 684.716 286.503 685.572 Q 285.948 686.427 285.948 687.943 Q 285.948 689.443 286.503 690.251 Q 287.057 691.06 288.167 691.06 Z" style="fill: rgb(153, 0, 0); white-space: pre;"/>
          <path d="M 296.268 683.576 L 296.268 692.185 L 294.698 692.185 L 294.698 683.576 Z M 295.495 680.318 Q 295.87 680.318 296.139 680.537 Q 296.409 680.755 296.409 681.247 Q 296.409 681.74 296.139 681.962 Q 295.87 682.185 295.495 682.185 Q 295.112 682.185 294.85 681.962 Q 294.589 681.74 294.589 681.247 Q 294.589 680.755 294.85 680.537 Q 295.112 680.318 295.495 680.318 Z" style="fill: rgb(153, 0, 0); white-space: pre;"/>
          <path d="M 304.628 689.779 Q 304.628 690.615 304.217 691.189 Q 303.807 691.763 303.026 692.052 Q 302.245 692.341 301.151 692.341 Q 300.245 692.341 299.589 692.205 Q 298.932 692.068 298.401 691.81 L 298.401 690.419 Q 298.971 690.693 299.721 690.904 Q 300.471 691.115 301.19 691.115 Q 302.198 691.115 302.647 690.794 Q 303.096 690.474 303.096 689.927 Q 303.096 689.607 302.917 689.361 Q 302.737 689.115 302.288 688.869 Q 301.839 688.622 301.003 688.302 Q 300.182 687.982 299.6 687.662 Q 299.018 687.341 298.714 686.888 Q 298.409 686.435 298.409 685.716 Q 298.409 684.599 299.303 684.009 Q 300.198 683.419 301.667 683.419 Q 302.448 683.419 303.139 683.576 Q 303.831 683.732 304.464 684.013 L 303.956 685.224 Q 303.393 684.982 302.799 684.822 Q 302.206 684.662 301.589 684.662 Q 300.784 684.662 300.358 684.919 Q 299.932 685.177 299.932 685.63 Q 299.932 685.982 300.132 686.216 Q 300.331 686.451 300.799 686.673 Q 301.268 686.896 302.065 687.201 Q 302.854 687.497 303.428 687.818 Q 304.003 688.138 304.315 688.599 Q 304.628 689.06 304.628 689.779 Z" style="fill: rgb(153, 0, 0); white-space: pre;"/>
          <path d="M 310.901 683.419 Q 312.471 683.419 313.413 684.533 Q 314.354 685.646 314.354 687.857 Q 314.354 689.326 313.921 690.322 Q 313.487 691.318 312.702 691.83 Q 311.917 692.341 310.862 692.341 Q 310.198 692.341 309.698 692.165 Q 309.198 691.99 308.842 691.697 Q 308.487 691.404 308.245 691.068 L 308.143 691.068 Q 308.174 691.372 308.21 691.775 Q 308.245 692.177 308.245 692.497 L 308.245 696.013 L 306.667 696.013 L 306.667 683.576 L 307.956 683.576 L 308.167 684.81 L 308.245 684.81 Q 308.487 684.427 308.842 684.111 Q 309.198 683.794 309.706 683.607 Q 310.214 683.419 310.901 683.419 Z M 310.542 684.716 Q 309.714 684.716 309.217 685.04 Q 308.721 685.365 308.491 686.005 Q 308.26 686.646 308.245 687.615 L 308.245 687.865 Q 308.245 688.896 308.464 689.603 Q 308.682 690.31 309.19 690.681 Q 309.698 691.052 310.557 691.052 Q 311.292 691.052 311.78 690.654 Q 312.268 690.255 312.507 689.529 Q 312.745 688.802 312.745 687.841 Q 312.745 686.38 312.206 685.548 Q 311.667 684.716 310.542 684.716 Z" style="fill: rgb(153, 0, 0); white-space: pre;"/>
          <path d="M 318.12 692.185 L 316.542 692.185 L 316.542 680.029 L 318.12 680.029 Z" style="fill: rgb(153, 0, 0); white-space: pre;"/>
          <path d="M 324.089 683.427 Q 325.682 683.427 326.471 684.134 Q 327.26 684.841 327.26 686.365 L 327.26 692.185 L 326.135 692.185 L 325.831 690.935 L 325.768 690.935 Q 325.409 691.404 325.018 691.716 Q 324.628 692.029 324.116 692.185 Q 323.604 692.341 322.87 692.341 Q 322.089 692.341 321.479 692.06 Q 320.87 691.779 320.522 691.212 Q 320.174 690.646 320.174 689.771 Q 320.174 688.458 321.182 687.779 Q 322.19 687.099 324.237 687.037 L 325.721 686.974 L 325.721 686.49 Q 325.721 685.482 325.272 685.068 Q 324.823 684.654 324.018 684.654 Q 323.354 684.654 322.745 684.845 Q 322.135 685.037 321.573 685.302 L 321.073 684.162 Q 321.682 683.849 322.46 683.638 Q 323.237 683.427 324.089 683.427 Z M 325.706 688.005 L 324.503 688.06 Q 323.01 688.115 322.405 688.556 Q 321.799 688.997 321.799 689.787 Q 321.799 690.474 322.214 690.794 Q 322.628 691.115 323.307 691.115 Q 324.354 691.115 325.03 690.525 Q 325.706 689.935 325.706 688.779 Z" style="fill: rgb(153, 0, 0); white-space: pre;"/>
          <path d="M 328.549 683.576 L 330.245 683.576 L 332.073 688.537 Q 332.214 688.919 332.335 689.283 Q 332.456 689.646 332.546 689.986 Q 332.635 690.326 332.69 690.654 L 332.745 690.654 Q 332.839 690.255 333.01 689.685 Q 333.182 689.115 333.385 688.529 L 335.135 683.576 L 336.823 683.576 L 333.104 693.404 Q 332.799 694.224 332.366 694.814 Q 331.932 695.404 331.339 695.72 Q 330.745 696.037 329.932 696.037 Q 329.557 696.037 329.272 695.994 Q 328.987 695.951 328.784 695.896 L 328.784 694.646 Q 328.956 694.685 329.202 694.716 Q 329.448 694.747 329.714 694.747 Q 330.206 694.747 330.561 694.556 Q 330.917 694.365 331.171 694.013 Q 331.424 693.662 331.596 693.193 L 331.987 692.177 Z" style="fill: rgb(153, 0, 0); white-space: pre;"/>
          <path d="M 343.893 680.029 L 343.893 683.372 Q 343.893 683.771 343.87 684.154 Q 343.846 684.537 343.815 684.794 L 343.909 684.794 Q 344.182 684.341 344.585 684.04 Q 344.987 683.74 345.499 683.587 Q 346.01 683.435 346.581 683.435 Q 347.589 683.435 348.284 683.763 Q 348.979 684.091 349.339 684.783 Q 349.698 685.474 349.698 686.576 L 349.698 692.185 L 348.143 692.185 L 348.143 686.787 Q 348.143 685.755 347.69 685.236 Q 347.237 684.716 346.299 684.716 Q 345.409 684.716 344.878 685.072 Q 344.346 685.427 344.12 686.115 Q 343.893 686.802 343.893 687.802 L 343.893 692.185 L 342.323 692.185 L 342.323 680.029 Z" style="fill: rgb(153, 0, 0); white-space: pre;"/>
          <path d="M 353.878 683.576 L 353.878 692.185 L 352.307 692.185 L 352.307 683.576 Z M 353.104 680.318 Q 353.479 680.318 353.749 680.537 Q 354.018 680.755 354.018 681.247 Q 354.018 681.74 353.749 681.962 Q 353.479 682.185 353.104 682.185 Q 352.721 682.185 352.46 681.962 Q 352.198 681.74 352.198 681.247 Q 352.198 680.755 352.46 680.537 Q 352.721 680.318 353.104 680.318 Z" style="fill: rgb(153, 0, 0); white-space: pre;"/>
          <path d="M 359.534 692.341 Q 357.956 692.341 357.014 691.224 Q 356.073 690.107 356.073 687.912 Q 356.073 685.693 357.03 684.556 Q 357.987 683.419 359.573 683.419 Q 360.237 683.419 360.737 683.599 Q 361.237 683.779 361.6 684.076 Q 361.964 684.372 362.206 684.747 L 362.299 684.747 Q 362.26 684.505 362.221 684.068 Q 362.182 683.63 362.182 683.302 L 362.182 680.029 L 363.753 680.029 L 363.753 692.185 L 362.51 692.185 L 362.253 690.99 L 362.182 690.99 Q 361.948 691.365 361.585 691.673 Q 361.221 691.982 360.717 692.162 Q 360.214 692.341 359.534 692.341 Z M 359.901 691.06 Q 361.174 691.06 361.702 690.326 Q 362.229 689.591 362.237 688.146 L 362.237 687.904 Q 362.237 686.365 361.733 685.54 Q 361.229 684.716 359.885 684.716 Q 358.792 684.716 358.237 685.572 Q 357.682 686.427 357.682 687.943 Q 357.682 689.443 358.237 690.251 Q 358.792 691.06 359.901 691.06 Z" style="fill: rgb(153, 0, 0); white-space: pre;"/>
          <path d="M 369.409 692.341 Q 367.831 692.341 366.889 691.224 Q 365.948 690.107 365.948 687.912 Q 365.948 685.693 366.905 684.556 Q 367.862 683.419 369.448 683.419 Q 370.112 683.419 370.612 683.599 Q 371.112 683.779 371.475 684.076 Q 371.839 684.372 372.081 684.747 L 372.174 684.747 Q 372.135 684.505 372.096 684.068 Q 372.057 683.63 372.057 683.302 L 372.057 680.029 L 373.628 680.029 L 373.628 692.185 L 372.385 692.185 L 372.128 690.99 L 372.057 690.99 Q 371.823 691.365 371.46 691.673 Q 371.096 691.982 370.592 692.162 Q 370.089 692.341 369.409 692.341 Z M 369.776 691.06 Q 371.049 691.06 371.577 690.326 Q 372.104 689.591 372.112 688.146 L 372.112 687.904 Q 372.112 686.365 371.608 685.54 Q 371.104 684.716 369.76 684.716 Q 368.667 684.716 368.112 685.572 Q 367.557 686.427 367.557 687.943 Q 367.557 689.443 368.112 690.251 Q 368.667 691.06 369.776 691.06 Z" style="fill: rgb(153, 0, 0); white-space: pre;"/>
          <path d="M 379.682 683.419 Q 380.807 683.419 381.612 683.9 Q 382.417 684.38 382.846 685.255 Q 383.276 686.13 383.276 687.318 L 383.276 688.208 L 377.432 688.208 Q 377.456 689.591 378.143 690.33 Q 378.831 691.068 380.073 691.068 Q 380.893 691.068 381.534 690.912 Q 382.174 690.755 382.862 690.451 L 382.862 691.771 Q 382.214 692.068 381.561 692.205 Q 380.909 692.341 380.003 692.341 Q 378.753 692.341 377.811 691.841 Q 376.87 691.341 376.346 690.361 Q 375.823 689.38 375.823 687.943 Q 375.823 686.521 376.299 685.509 Q 376.776 684.497 377.643 683.958 Q 378.51 683.419 379.682 683.419 Z M 379.674 684.638 Q 378.721 684.638 378.143 685.259 Q 377.565 685.88 377.464 687.037 L 381.698 687.037 Q 381.69 686.326 381.471 685.787 Q 381.253 685.247 380.811 684.943 Q 380.37 684.638 379.674 684.638 Z" style="fill: rgb(153, 0, 0); white-space: pre;"/>
          <path d="M 389.698 683.419 Q 391.19 683.419 391.991 684.169 Q 392.792 684.919 392.792 686.576 L 392.792 692.185 L 391.237 692.185 L 391.237 686.787 Q 391.237 685.755 390.784 685.236 Q 390.331 684.716 389.393 684.716 Q 388.057 684.716 387.522 685.505 Q 386.987 686.294 386.987 687.794 L 386.987 692.185 L 385.417 692.185 L 385.417 683.576 L 386.659 683.576 L 386.885 684.787 L 386.971 684.787 Q 387.245 684.333 387.667 684.029 Q 388.089 683.724 388.608 683.572 Q 389.128 683.419 389.698 683.419 Z" style="fill: rgb(153, 0, 0); white-space: pre;"/>
          <path d="M 398.612 696.029 Q 398.214 696.029 397.882 695.97 Q 397.549 695.912 397.307 695.833 L 397.307 694.576 Q 397.565 694.654 397.815 694.693 Q 398.065 694.732 398.378 694.732 Q 398.901 694.732 399.229 694.443 Q 399.557 694.154 399.557 693.372 L 399.557 683.576 L 401.128 683.576 L 401.128 693.435 Q 401.128 694.216 400.866 694.802 Q 400.604 695.388 400.046 695.708 Q 399.487 696.029 398.612 696.029 Z M 399.448 681.247 Q 399.448 680.755 399.71 680.537 Q 399.971 680.318 400.354 680.318 Q 400.729 680.318 400.999 680.537 Q 401.268 680.755 401.268 681.247 Q 401.268 681.74 400.999 681.962 Q 400.729 682.185 400.354 682.185 Q 399.971 682.185 399.71 681.962 Q 399.448 681.74 399.448 681.247 Z" style="fill: rgb(153, 0, 0); white-space: pre;"/>
          <path d="M 411.331 687.865 Q 411.331 688.927 411.053 689.759 Q 410.776 690.591 410.249 691.165 Q 409.721 691.74 408.979 692.04 Q 408.237 692.341 407.299 692.341 Q 406.424 692.341 405.694 692.04 Q 404.964 691.74 404.432 691.165 Q 403.901 690.591 403.612 689.759 Q 403.323 688.927 403.323 687.865 Q 403.323 686.451 403.807 685.455 Q 404.292 684.458 405.194 683.939 Q 406.096 683.419 407.346 683.419 Q 408.534 683.419 409.432 683.943 Q 410.331 684.466 410.831 685.458 Q 411.331 686.451 411.331 687.865 Z M 404.932 687.865 Q 404.932 688.857 405.186 689.572 Q 405.44 690.287 405.967 690.669 Q 406.495 691.052 407.331 691.052 Q 408.151 691.052 408.682 690.669 Q 409.214 690.287 409.464 689.572 Q 409.714 688.857 409.714 687.865 Q 409.714 686.88 409.464 686.177 Q 409.214 685.474 408.686 685.099 Q 408.159 684.724 407.315 684.724 Q 406.081 684.724 405.507 685.548 Q 404.932 686.372 404.932 687.865 Z" style="fill: rgb(153, 0, 0); white-space: pre;"/>
          <path d="M 415.081 680.029 L 415.081 683.013 Q 415.081 683.529 415.053 684.021 Q 415.026 684.513 415.003 684.779 L 415.081 684.779 Q 415.432 684.216 416.077 683.822 Q 416.721 683.427 417.737 683.427 Q 419.307 683.427 420.253 684.548 Q 421.198 685.669 421.198 687.872 Q 421.198 689.326 420.764 690.326 Q 420.331 691.326 419.546 691.833 Q 418.76 692.341 417.698 692.341 Q 416.69 692.341 416.065 691.97 Q 415.44 691.599 415.089 691.083 L 414.971 691.083 L 414.674 692.185 L 413.51 692.185 L 413.51 680.029 Z M 417.385 684.716 Q 416.534 684.716 416.03 685.052 Q 415.526 685.388 415.307 686.068 Q 415.089 686.747 415.081 687.779 L 415.081 687.896 Q 415.081 689.427 415.581 690.24 Q 416.081 691.052 417.393 691.052 Q 418.471 691.052 419.03 690.224 Q 419.589 689.396 419.589 687.857 Q 419.589 686.294 419.034 685.505 Q 418.479 684.716 417.385 684.716 Z" style="fill: rgb(153, 0, 0); white-space: pre;"/>
          <path d="M 429.065 689.779 Q 429.065 690.615 428.655 691.189 Q 428.245 691.763 427.464 692.052 Q 426.682 692.341 425.589 692.341 Q 424.682 692.341 424.026 692.205 Q 423.37 692.068 422.839 691.81 L 422.839 690.419 Q 423.409 690.693 424.159 690.904 Q 424.909 691.115 425.628 691.115 Q 426.635 691.115 427.085 690.794 Q 427.534 690.474 427.534 689.927 Q 427.534 689.607 427.354 689.361 Q 427.174 689.115 426.725 688.869 Q 426.276 688.622 425.44 688.302 Q 424.62 687.982 424.038 687.662 Q 423.456 687.341 423.151 686.888 Q 422.846 686.435 422.846 685.716 Q 422.846 684.599 423.741 684.009 Q 424.635 683.419 426.104 683.419 Q 426.885 683.419 427.577 683.576 Q 428.268 683.732 428.901 684.013 L 428.393 685.224 Q 427.831 684.982 427.237 684.822 Q 426.643 684.662 426.026 684.662 Q 425.221 684.662 424.796 684.919 Q 424.37 685.177 424.37 685.63 Q 424.37 685.982 424.569 686.216 Q 424.768 686.451 425.237 686.673 Q 425.706 686.896 426.503 687.201 Q 427.292 687.497 427.866 687.818 Q 428.44 688.138 428.753 688.599 Q 429.065 689.06 429.065 689.779 Z" style="fill: rgb(153, 0, 0); white-space: pre;"/>
          <g transform="matrix(1, 0, 0, 1, 3.958008, 0.000498)">
            <title>Checkbox</title>
            <rect style="fill: rgb(255, 255, 255); stroke: rgb(128, 128, 128);" x="442.637" y="679.362" width="13" height="13" rx="2" ry="2">
              <title>Container</title>
            </rect>
          </g>
        </g>
        <g style="" transform="matrix(1, 0, 0, 1, 0.151941, 78.332977)">
          <title>Unhide All Jobs Button</title>
          <rect style="fill: rgb(179, 0, 0);" x="251.387" y="656.034" width="188.659" height="59.657" rx="10" ry="10">
            <title>Container</title>
          </rect>
          <path d="M 300.64 680.763 L 300.64 688.154 Q 300.64 689.357 300.144 690.302 Q 299.648 691.247 298.648 691.794 Q 297.648 692.341 296.132 692.341 Q 293.984 692.341 292.855 691.189 Q 291.726 690.037 291.726 688.122 L 291.726 680.763 L 293.335 680.763 L 293.335 688.06 Q 293.335 689.505 294.058 690.24 Q 294.781 690.974 296.21 690.974 Q 297.195 690.974 297.82 690.619 Q 298.445 690.263 298.745 689.611 Q 299.046 688.958 299.046 688.06 L 299.046 680.763 Z" style="fill: rgb(255, 255, 255); white-space: pre;"/>
          <path d="M 307.687 683.419 Q 309.179 683.419 309.98 684.169 Q 310.781 684.919 310.781 686.576 L 310.781 692.185 L 309.226 692.185 L 309.226 686.787 Q 309.226 685.755 308.773 685.236 Q 308.32 684.716 307.382 684.716 Q 306.046 684.716 305.511 685.505 Q 304.976 686.294 304.976 687.794 L 304.976 692.185 L 303.406 692.185 L 303.406 683.576 L 304.648 683.576 L 304.874 684.787 L 304.96 684.787 Q 305.234 684.333 305.656 684.029 Q 306.077 683.724 306.597 683.572 Q 307.116 683.419 307.687 683.419 Z" style="fill: rgb(255, 255, 255); white-space: pre;"/>
          <path d="M 314.976 680.029 L 314.976 683.372 Q 314.976 683.771 314.952 684.154 Q 314.929 684.537 314.898 684.794 L 314.991 684.794 Q 315.265 684.341 315.667 684.04 Q 316.07 683.74 316.581 683.587 Q 317.093 683.435 317.663 683.435 Q 318.671 683.435 319.366 683.763 Q 320.062 684.091 320.421 684.783 Q 320.781 685.474 320.781 686.576 L 320.781 692.185 L 319.226 692.185 L 319.226 686.787 Q 319.226 685.755 318.773 685.236 Q 318.32 684.716 317.382 684.716 Q 316.491 684.716 315.96 685.072 Q 315.429 685.427 315.202 686.115 Q 314.976 686.802 314.976 687.802 L 314.976 692.185 L 313.406 692.185 L 313.406 680.029 Z" style="fill: rgb(255, 255, 255); white-space: pre;"/>
          <path d="M 324.96 683.576 L 324.96 692.185 L 323.39 692.185 L 323.39 683.576 Z M 324.187 680.318 Q 324.562 680.318 324.831 680.537 Q 325.101 680.755 325.101 681.247 Q 325.101 681.74 324.831 681.962 Q 324.562 682.185 324.187 682.185 Q 323.804 682.185 323.542 681.962 Q 323.281 681.74 323.281 681.247 Q 323.281 680.755 323.542 680.537 Q 323.804 680.318 324.187 680.318 Z" style="fill: rgb(255, 255, 255); white-space: pre;"/>
          <path d="M 330.616 692.341 Q 329.038 692.341 328.097 691.224 Q 327.156 690.107 327.156 687.912 Q 327.156 685.693 328.113 684.556 Q 329.07 683.419 330.656 683.419 Q 331.32 683.419 331.82 683.599 Q 332.32 683.779 332.683 684.076 Q 333.046 684.372 333.288 684.747 L 333.382 684.747 Q 333.343 684.505 333.304 684.068 Q 333.265 683.63 333.265 683.302 L 333.265 680.029 L 334.835 680.029 L 334.835 692.185 L 333.593 692.185 L 333.335 690.99 L 333.265 690.99 Q 333.031 691.365 332.667 691.673 Q 332.304 691.982 331.8 692.162 Q 331.296 692.341 330.616 692.341 Z M 330.984 691.06 Q 332.257 691.06 332.784 690.326 Q 333.312 689.591 333.32 688.146 L 333.32 687.904 Q 333.32 686.365 332.816 685.54 Q 332.312 684.716 330.968 684.716 Q 329.874 684.716 329.32 685.572 Q 328.765 686.427 328.765 687.943 Q 328.765 689.443 329.32 690.251 Q 329.874 691.06 330.984 691.06 Z" style="fill: rgb(255, 255, 255); white-space: pre;"/>
          <path d="M 340.89 683.419 Q 342.015 683.419 342.82 683.9 Q 343.624 684.38 344.054 685.255 Q 344.484 686.13 344.484 687.318 L 344.484 688.208 L 338.64 688.208 Q 338.663 689.591 339.351 690.33 Q 340.038 691.068 341.281 691.068 Q 342.101 691.068 342.741 690.912 Q 343.382 690.755 344.07 690.451 L 344.07 691.771 Q 343.421 692.068 342.769 692.205 Q 342.116 692.341 341.21 692.341 Q 339.96 692.341 339.019 691.841 Q 338.077 691.341 337.554 690.361 Q 337.031 689.38 337.031 687.943 Q 337.031 686.521 337.507 685.509 Q 337.984 684.497 338.851 683.958 Q 339.718 683.419 340.89 683.419 Z M 340.882 684.638 Q 339.929 684.638 339.351 685.259 Q 338.773 685.88 338.671 687.037 L 342.906 687.037 Q 342.898 686.326 342.679 685.787 Q 342.46 685.247 342.019 684.943 Q 341.577 684.638 340.882 684.638 Z" style="fill: rgb(255, 255, 255); white-space: pre;"/>
          <path d="M 354.077 683.427 Q 355.671 683.427 356.46 684.134 Q 357.249 684.841 357.249 686.365 L 357.249 692.185 L 356.124 692.185 L 355.82 690.935 L 355.757 690.935 Q 355.398 691.404 355.007 691.716 Q 354.616 692.029 354.105 692.185 Q 353.593 692.341 352.859 692.341 Q 352.077 692.341 351.468 692.06 Q 350.859 691.779 350.511 691.212 Q 350.163 690.646 350.163 689.771 Q 350.163 688.458 351.171 687.779 Q 352.179 687.099 354.226 687.037 L 355.71 686.974 L 355.71 686.49 Q 355.71 685.482 355.261 685.068 Q 354.812 684.654 354.007 684.654 Q 353.343 684.654 352.734 684.845 Q 352.124 685.037 351.562 685.302 L 351.062 684.162 Q 351.671 683.849 352.449 683.638 Q 353.226 683.427 354.077 683.427 Z M 355.695 688.005 L 354.491 688.06 Q 352.999 688.115 352.394 688.556 Q 351.788 688.997 351.788 689.787 Q 351.788 690.474 352.202 690.794 Q 352.616 691.115 353.296 691.115 Q 354.343 691.115 355.019 690.525 Q 355.695 689.935 355.695 688.779 Z" style="fill: rgb(255, 255, 255); white-space: pre;"/>
          <path d="M 361.437 692.185 L 359.859 692.185 L 359.859 680.029 L 361.437 680.029 Z" style="fill: rgb(255, 255, 255); white-space: pre;"/>
          <path d="M 365.687 692.185 L 364.109 692.185 L 364.109 680.029 L 365.687 680.029 Z" style="fill: rgb(255, 255, 255); white-space: pre;"/>
          <path d="M 371.57 696.029 Q 371.171 696.029 370.839 695.97 Q 370.507 695.912 370.265 695.833 L 370.265 694.576 Q 370.523 694.654 370.773 694.693 Q 371.023 694.732 371.335 694.732 Q 371.859 694.732 372.187 694.443 Q 372.515 694.154 372.515 693.372 L 372.515 683.576 L 374.085 683.576 L 374.085 693.435 Q 374.085 694.216 373.824 694.802 Q 373.562 695.388 373.003 695.708 Q 372.445 696.029 371.57 696.029 Z M 372.406 681.247 Q 372.406 680.755 372.667 680.537 Q 372.929 680.318 373.312 680.318 Q 373.687 680.318 373.956 680.537 Q 374.226 680.755 374.226 681.247 Q 374.226 681.74 373.956 681.962 Q 373.687 682.185 373.312 682.185 Q 372.929 682.185 372.667 681.962 Q 372.406 681.74 372.406 681.247 Z" style="fill: rgb(255, 255, 255); white-space: pre;"/>
          <path d="M 384.288 687.865 Q 384.288 688.927 384.011 689.759 Q 383.734 690.591 383.206 691.165 Q 382.679 691.74 381.937 692.04 Q 381.195 692.341 380.257 692.341 Q 379.382 692.341 378.652 692.04 Q 377.921 691.74 377.39 691.165 Q 376.859 690.591 376.57 689.759 Q 376.281 688.927 376.281 687.865 Q 376.281 686.451 376.765 685.455 Q 377.249 684.458 378.152 683.939 Q 379.054 683.419 380.304 683.419 Q 381.491 683.419 382.39 683.943 Q 383.288 684.466 383.788 685.458 Q 384.288 686.451 384.288 687.865 Z M 377.89 687.865 Q 377.89 688.857 378.144 689.572 Q 378.398 690.287 378.925 690.669 Q 379.452 691.052 380.288 691.052 Q 381.109 691.052 381.64 690.669 Q 382.171 690.287 382.421 689.572 Q 382.671 688.857 382.671 687.865 Q 382.671 686.88 382.421 686.177 Q 382.171 685.474 381.644 685.099 Q 381.116 684.724 380.273 684.724 Q 379.038 684.724 378.464 685.548 Q 377.89 686.372 377.89 687.865 Z" style="fill: rgb(255, 255, 255); white-space: pre;"/>
          <path d="M 388.038 680.029 L 388.038 683.013 Q 388.038 683.529 388.011 684.021 Q 387.984 684.513 387.96 684.779 L 388.038 684.779 Q 388.39 684.216 389.034 683.822 Q 389.679 683.427 390.695 683.427 Q 392.265 683.427 393.21 684.548 Q 394.156 685.669 394.156 687.872 Q 394.156 689.326 393.722 690.326 Q 393.288 691.326 392.503 691.833 Q 391.718 692.341 390.656 692.341 Q 389.648 692.341 389.023 691.97 Q 388.398 691.599 388.046 691.083 L 387.929 691.083 L 387.632 692.185 L 386.468 692.185 L 386.468 680.029 Z M 390.343 684.716 Q 389.491 684.716 388.988 685.052 Q 388.484 685.388 388.265 686.068 Q 388.046 686.747 388.038 687.779 L 388.038 687.896 Q 388.038 689.427 388.538 690.24 Q 389.038 691.052 390.351 691.052 Q 391.429 691.052 391.988 690.224 Q 392.546 689.396 392.546 687.857 Q 392.546 686.294 391.991 685.505 Q 391.437 684.716 390.343 684.716 Z" style="fill: rgb(255, 255, 255); white-space: pre;"/>
          <path d="M 402.023 689.779 Q 402.023 690.615 401.613 691.189 Q 401.202 691.763 400.421 692.052 Q 399.64 692.341 398.546 692.341 Q 397.64 692.341 396.984 692.205 Q 396.327 692.068 395.796 691.81 L 395.796 690.419 Q 396.366 690.693 397.116 690.904 Q 397.866 691.115 398.585 691.115 Q 399.593 691.115 400.042 690.794 Q 400.491 690.474 400.491 689.927 Q 400.491 689.607 400.312 689.361 Q 400.132 689.115 399.683 688.869 Q 399.234 688.622 398.398 688.302 Q 397.577 687.982 396.995 687.662 Q 396.413 687.341 396.109 686.888 Q 395.804 686.435 395.804 685.716 Q 395.804 684.599 396.699 684.009 Q 397.593 683.419 399.062 683.419 Q 399.843 683.419 400.534 683.576 Q 401.226 683.732 401.859 684.013 L 401.351 685.224 Q 400.788 684.982 400.195 684.822 Q 399.601 684.662 398.984 684.662 Q 398.179 684.662 397.753 684.919 Q 397.327 685.177 397.327 685.63 Q 397.327 685.982 397.527 686.216 Q 397.726 686.451 398.195 686.673 Q 398.663 686.896 399.46 687.201 Q 400.249 687.497 400.824 687.818 Q 401.398 688.138 401.71 688.599 Q 402.023 689.06 402.023 689.779 Z" style="fill: rgb(255, 255, 255); white-space: pre;"/>
        </g>
        <g transform="matrix(1, 0, 0, 1, -33.203941, 78.332977)" style="opacity: 0.1;">
          <title>Undo Button</title>
          <rect style="pointer-events: auto; fill: rgb(77, 77, 77);" x="491.778" y="656.034" width="94" height="59.669" rx="10" ry="10">
            <title>Container</title>
          </rect>
          <path d="M 528.673 680.769 L 528.673 688.16 Q 528.673 689.363 528.177 690.308 Q 527.681 691.253 526.681 691.8 Q 525.681 692.347 524.165 692.347 Q 522.017 692.347 520.888 691.195 Q 519.759 690.043 519.759 688.128 L 519.759 680.769 L 521.368 680.769 L 521.368 688.066 Q 521.368 689.511 522.091 690.246 Q 522.814 690.98 524.243 690.98 Q 525.228 690.98 525.853 690.625 Q 526.478 690.269 526.778 689.617 Q 527.079 688.964 527.079 688.066 L 527.079 680.769 Z" style="fill: rgb(255, 255, 255); white-space: pre;"/>
          <path d="M 535.72 683.425 Q 537.212 683.425 538.013 684.175 Q 538.814 684.925 538.814 686.582 L 538.814 692.191 L 537.259 692.191 L 537.259 686.793 Q 537.259 685.761 536.806 685.242 Q 536.353 684.722 535.415 684.722 Q 534.079 684.722 533.544 685.511 Q 533.009 686.3 533.009 687.8 L 533.009 692.191 L 531.439 692.191 L 531.439 683.582 L 532.681 683.582 L 532.907 684.793 L 532.993 684.793 Q 533.267 684.339 533.689 684.035 Q 534.11 683.73 534.63 683.578 Q 535.149 683.425 535.72 683.425 Z" style="fill: rgb(255, 255, 255); white-space: pre;"/>
          <path d="M 544.415 692.347 Q 542.837 692.347 541.896 691.23 Q 540.954 690.113 540.954 687.918 Q 540.954 685.699 541.911 684.562 Q 542.868 683.425 544.454 683.425 Q 545.118 683.425 545.618 683.605 Q 546.118 683.785 546.482 684.082 Q 546.845 684.378 547.087 684.753 L 547.181 684.753 Q 547.142 684.511 547.103 684.074 Q 547.064 683.636 547.064 683.308 L 547.064 680.035 L 548.634 680.035 L 548.634 692.191 L 547.392 692.191 L 547.134 690.996 L 547.064 690.996 Q 546.829 691.371 546.466 691.679 Q 546.103 691.988 545.599 692.168 Q 545.095 692.347 544.415 692.347 Z M 544.782 691.066 Q 546.056 691.066 546.583 690.332 Q 547.11 689.597 547.118 688.152 L 547.118 687.91 Q 547.118 686.371 546.614 685.546 Q 546.11 684.722 544.767 684.722 Q 543.673 684.722 543.118 685.578 Q 542.564 686.433 542.564 687.949 Q 542.564 689.449 543.118 690.257 Q 543.673 691.066 544.782 691.066 Z" style="fill: rgb(255, 255, 255); white-space: pre;"/>
          <path d="M 558.837 687.871 Q 558.837 688.933 558.56 689.765 Q 558.282 690.597 557.755 691.171 Q 557.228 691.746 556.485 692.046 Q 555.743 692.347 554.806 692.347 Q 553.931 692.347 553.2 692.046 Q 552.47 691.746 551.939 691.171 Q 551.407 690.597 551.118 689.765 Q 550.829 688.933 550.829 687.871 Q 550.829 686.457 551.314 685.461 Q 551.798 684.464 552.7 683.945 Q 553.603 683.425 554.853 683.425 Q 556.04 683.425 556.939 683.949 Q 557.837 684.472 558.337 685.464 Q 558.837 686.457 558.837 687.871 Z M 552.439 687.871 Q 552.439 688.863 552.692 689.578 Q 552.946 690.293 553.474 690.675 Q 554.001 691.058 554.837 691.058 Q 555.657 691.058 556.189 690.675 Q 556.72 690.293 556.97 689.578 Q 557.22 688.863 557.22 687.871 Q 557.22 686.886 556.97 686.183 Q 556.72 685.48 556.192 685.105 Q 555.665 684.73 554.821 684.73 Q 553.587 684.73 553.013 685.554 Q 552.439 686.378 552.439 687.871 Z" style="fill: rgb(255, 255, 255); white-space: pre;"/>
        </g>
      </g>
      <g transform="matrix(2.541284, 0, 0, 2.541284, 399.91394, 772.100281)" style="filter: url(#filter-13);">
        <title>Cursor</title>
        <g transform="matrix(.23944 0 0 .23944 94.337 75.208)">
          <path d="m-368.99-226.1v-9h-4v-8h-4v-8h-4v-9h-5v-4h-4v-8h9v4h4v12h4v-54h8v38h4v-17h9v17h4v-13h8v17h4v-13h5v5h4v29h-4v12h-5v9h-33z" fill="#fefefe" style=""/>
          <path d="m-372.99-222.1v-13h-4v-8h-4v-8h-5v-9h-4v-4h-4v-12h13v4h4v-38h4v-4h8v4h4v17h9v4h12v4h9v4h4v5h4v29h-4v12h-4v13h-42zm37-4v-9h5v-12h4v-29h-4v-5h-5v13h-4v-17h-8v13h-4v-17h-9v17h-4v-38h-8v54h-4v-12h-4v-4h-9v8h4v4h5v9h4v8h4v8h4v9h33z" style=""/>
        </g>
      </g>
    </g>
  </g>
</svg>